<svg width="538" height="365" viewBox="0 0 538 365" fill="none" xmlns="http://www.w3.org/2000/svg">
<path d="M41.8647 92.4355H170.679L228.646 150.476H332.771L367.658 113.932H453.535" stroke="#EEEEFF" stroke-width="2" stroke-linecap="round" stroke-linejoin="round"/>
<path d="M100.368 212.279H185.171L329.551 67.7144H527.603" stroke="#EEEEFF" stroke-width="2" stroke-linecap="round" stroke-linejoin="round"/>
<ellipse cx="201.81" cy="25.796" rx="25.7629" ry="25.796" fill="url(#paint0_linear)"/>
<ellipse cx="85.8764" cy="92.4356" rx="3.22037" ry="3.2245" fill="#EEEEFF"/>
<path d="M72.9949 91.3608L85.8763 89.2112V95.6602L72.9949 93.5105V91.3608Z" fill="url(#paint1_linear)"/>
<path d="M161.018 102.109L194.295 135.429" stroke="#EEEEFF" stroke-width="2" stroke-linecap="round" stroke-linejoin="round"/>
<path d="M197.516 138.653L206.103 147.252" stroke="#EEEEFF" stroke-width="2" stroke-linecap="round" stroke-linejoin="round"/>
<path d="M363.901 213.892L397.178 247.211" stroke="#EEEEFF" stroke-width="2" stroke-linecap="round" stroke-linejoin="round"/>
<path d="M400.399 250.436L408.986 259.035" stroke="#EEEEFF" stroke-width="2" stroke-linecap="round" stroke-linejoin="round"/>
<path d="M376.783 127.819H471.783" stroke="#EEEEFF" stroke-width="2" stroke-linecap="round" stroke-linejoin="round"/>
<path d="M476.614 127.819H488.759" stroke="#EEEEFF" stroke-width="2" stroke-linecap="round" stroke-linejoin="round"/>
<path d="M493.79 127.819H519.016" stroke="#EEEEFF" stroke-width="2" stroke-linecap="round" stroke-linejoin="round"/>
<path d="M72.4583 198.038H127.204" stroke="#EEEEFF" stroke-width="2" stroke-linecap="round" stroke-linejoin="round"/>
<path d="M132.035 198.038H144.18" stroke="#EEEEFF" stroke-width="2" stroke-linecap="round" stroke-linejoin="round"/>
<path d="M149.21 198.038H174.436" stroke="#EEEEFF" stroke-width="2" stroke-linecap="round" stroke-linejoin="round"/>
<ellipse cx="414.354" cy="113.932" rx="3.22037" ry="3.2245" fill="#EEEEFF"/>
<path d="M401.472 112.857L414.354 110.708V117.157L401.472 115.007V112.857Z" fill="url(#paint2_linear)"/>
<ellipse cx="492.716" cy="67.7145" rx="3.22037" ry="3.2245" fill="#EEEEFF"/>
<path d="M479.834 66.6396L492.716 64.4899V70.9389L479.834 68.7893V66.6396Z" fill="url(#paint3_linear)"/>
<path d="M56.8931 276.232H178.194L259.239 195.082H365.511L410.06 239.688H499.693" stroke="#EEEEFF" stroke-width="2" stroke-linecap="round" stroke-linejoin="round"/>
<ellipse cx="153.504" cy="276.232" rx="3.22037" ry="3.2245" fill="#EEEEFF"/>
<path d="M140.623 275.157L153.504 273.007V279.456L140.623 277.307V275.157Z" fill="url(#paint4_linear)"/>
<path d="M182.049 126.455C182.049 126.455 164.004 164.157 181.618 224.443C181.749 224.893 181.909 225.334 182.049 225.775C195.41 265.812 337.046 254.848 361.565 241.24C361.565 241.24 388.38 181.048 363.898 124.354C363.907 124.354 264.574 80.1901 182.049 126.455Z" fill="#315EFB"/>
<g style="mix-blend-mode:soft-light">
<mask id="mask0" mask-type="alpha" maskUnits="userSpaceOnUse" x="173" y="105" width="202" height="149">
<path d="M182.049 126.455C182.049 126.455 164.004 164.157 181.618 224.443C181.749 224.893 181.909 225.334 182.049 225.775C195.41 265.812 337.046 254.848 361.565 241.24C361.565 241.24 388.38 181.048 363.898 124.354C363.907 124.354 264.574 80.1901 182.049 126.455Z" fill="#315EFB"/>
</mask>
<g mask="url(#mask0)">
<g style="mix-blend-mode:soft-light">
<path d="M175.035 145.56C175.035 145.56 169.617 176.1 181.488 227.452C181.488 227.452 186.526 254.492 262.091 258.855C328.538 262.693 362.65 244.146 362.65 244.146C362.65 244.146 375.793 221.542 377.277 210.513C377.277 210.513 295.542 243.433 214.939 216.299C169.14 200.882 175.035 145.56 175.035 145.56Z" fill="url(#paint5_linear)"/>
</g>
</g>
</g>
<path d="M371.886 204.428L372.743 200.439C372.743 200.439 355.898 203.664 340.796 202.452C325.695 201.241 321.514 196.078 319.237 189.545C319.237 189.545 318.582 204.102 339.386 206.152C360.462 208.239 371.886 204.428 371.886 204.428Z" fill="#1642FA"/>
<path d="M375.661 200.63C375.661 200.63 380.345 187.5 376.963 167.27C376.963 167.27 364.024 159.965 340.132 162.103C316.24 164.241 314.245 181.301 318.789 193.943C323.82 207.899 355.545 205.592 375.661 200.63Z" fill="#356BFF"/>
<circle cx="335.559" cy="184.104" r="12.6968" fill="white"/>
<path d="M347.047 184.104C347.047 190.448 341.904 195.592 335.559 195.592C329.215 195.592 324.072 190.448 324.072 184.104C324.072 184.104 330.118 186.522 337.978 181.686C347.047 176.105 347.047 184.104 347.047 184.104Z" fill="url(#paint6_linear)"/>
<path fill-rule="evenodd" clip-rule="evenodd" d="M331.619 182.208C332.924 182.208 333.983 181.142 333.983 179.826C333.983 178.511 332.924 177.445 331.619 177.445C330.313 177.445 329.255 178.511 329.255 179.826C329.255 181.142 330.313 182.208 331.619 182.208Z" fill="#315EFB"/>
<path fill-rule="evenodd" clip-rule="evenodd" d="M339.499 190.147C340.805 190.147 341.863 189.081 341.863 187.765C341.863 186.45 340.805 185.384 339.499 185.384C338.193 185.384 337.135 186.45 337.135 187.765C337.135 189.081 338.193 190.147 339.499 190.147Z" fill="#315EFB"/>
<path fill-rule="evenodd" clip-rule="evenodd" d="M339.439 178.239C338.1 178.239 337.014 179.333 337.014 180.682C337.014 182.031 338.1 183.124 339.439 183.124C340.778 183.124 341.864 182.031 341.864 180.682C341.864 179.333 340.778 178.239 339.439 178.239Z" fill="#315EFB"/>
<path fill-rule="evenodd" clip-rule="evenodd" d="M331.68 186.055C330.341 186.055 329.256 187.149 329.256 188.498C329.256 189.847 330.341 190.941 331.68 190.941C333.019 190.941 334.105 189.847 334.105 188.498C334.105 187.149 333.019 186.055 331.68 186.055Z" fill="#315EFB"/>
<path d="M203.138 40.1579C209.891 13.0939 262.763 2.30046 288.355 0.286769C330.562 -3.03428 327.346 23.2429 288.355 40.1579C275.652 45.6689 267.453 69.9606 240.923 76.8072C230.646 79.4593 194.697 73.988 203.138 40.1579Z" fill="url(#paint7_linear)"/>
<circle r="3.22243" transform="matrix(0.706653 0.70756 -0.706653 0.70756 390.315 219.918)" fill="#EEEEFF"/>
<path d="M381.966 210.038L392.593 217.638L388.038 222.198L380.448 211.558L381.966 210.038Z" fill="url(#paint8_linear)"/>
<path opacity="0.3" d="M1.74359 224.747C-4.51105 210.193 7.5572 204.28 14.3732 203.143C49.8561 203.143 75.7169 224.747 93.7591 229.295C111.801 233.843 136.459 232.706 168.935 250.33C201.411 267.954 208.027 283.873 225.467 300.36C242.908 316.847 257.342 306.614 281.398 308.319C305.455 310.025 313.874 327.08 281.398 340.156C248.922 353.232 233.286 340.725 208.027 340.156C182.768 339.588 149.69 311.73 136.459 292.969C123.228 274.208 102.78 258.29 75.7169 255.447C48.6535 252.604 9.56189 242.94 1.74359 224.747Z" fill="url(#paint9_linear)"/>
<path d="M297.991 298.673L363.16 343.963L257.808 364.58L297.991 298.673Z" fill="url(#paint10_linear)"/>
<path fill-rule="evenodd" clip-rule="evenodd" d="M473.894 281.113C474.761 276.051 479.572 272.638 484.636 273.508C489.7 274.378 493.099 279.202 492.231 284.264C491.364 289.326 486.553 292.739 481.489 291.869C476.425 290.999 473.026 286.175 473.894 281.113ZM482.059 281.753L477.636 280.993L476.839 282.571L481.262 283.331L482.059 281.753ZM488.452 279.98C488.831 280.045 489.302 280.306 489.464 280.822C489.626 281.338 489.517 281.57 489.232 282.176L489.232 282.177C488.947 282.783 488.047 284.595 487.696 285.232C487.345 285.869 486.815 286.363 486.204 286.593L486.15 286.614C485.58 286.829 485.34 286.919 484.588 286.79L476.648 285.426L477.518 283.707L484.986 284.99L486.723 281.551L479.316 280.278L480.186 278.559L488.452 279.98Z" fill="#315EFB"/>
<path fill-rule="evenodd" clip-rule="evenodd" d="M419.488 304.221C424.093 297.087 433.628 295.025 440.766 299.645C447.904 304.264 449.942 313.817 445.337 320.951C440.731 328.084 431.196 330.147 424.058 325.527C416.92 320.907 414.882 311.354 419.488 304.221ZM425.072 312.153L426.587 312.466L422.964 315.888L433.89 322.959L436.589 320.404L430.037 316.163L432.667 313.669L434.191 313.968L436.276 312.005L434.767 311.715L439.454 307.285L435.102 304.468L428.713 310.487L427.17 310.187L425.072 312.153L425.072 312.153Z" fill="#315EFB"/>
<path d="M443.03 183.504C444.218 173.653 450.056 170.19 452.827 169.689C464.998 173.293 479.248 163.082 489.935 166.085C500.622 169.088 508.934 183.504 513.981 188.31C519.027 193.115 544.855 197.921 535.949 212.937C527.043 227.954 513.387 212.937 492.31 208.733C471.232 204.528 472.717 218.043 463.217 222.248C453.717 226.453 446.296 219.845 443.03 212.937C439.765 206.03 441.546 195.818 443.03 183.504Z" fill="url(#paint11_linear)"/>
<path fill-rule="evenodd" clip-rule="evenodd" d="M143.771 343.156C134.325 333.422 134.549 317.863 144.271 308.405C153.994 298.947 169.533 299.171 178.978 308.906C188.424 318.64 188.2 334.2 178.478 343.658C168.755 353.115 153.216 352.891 143.771 343.156Z" fill="white"/>
<path fill-rule="evenodd" clip-rule="evenodd" d="M141.624 343.156C132.18 333.423 132.402 317.863 142.125 308.405C151.847 298.947 167.387 299.173 176.832 308.906C186.276 318.639 186.053 334.2 176.331 343.658C166.609 353.116 151.068 352.89 141.624 343.156ZM171.185 338.357L153.147 335.179L165.176 332.165L165.177 332.166L168.536 320.208L171.185 338.357ZM147.268 313.709L167.139 318.779L163.71 330.654L151.756 333.745L147.268 313.709Z" fill="#315EFB"/>
<path fill-rule="evenodd" clip-rule="evenodd" d="M452.25 152.818C457.172 146.778 466.055 145.874 472.09 150.802C478.125 155.731 479.025 164.627 474.103 170.667C469.182 176.708 460.298 177.612 454.264 172.684C448.229 167.755 447.329 158.859 452.25 152.818Z" fill="white"/>
<path fill-rule="evenodd" clip-rule="evenodd" d="M450.103 151.744C455.021 145.707 463.908 144.799 469.943 149.727C475.978 154.656 476.874 163.556 471.957 169.593C467.039 175.629 458.151 176.538 452.117 171.609C446.082 166.68 445.186 157.78 450.103 151.744ZM454.797 168.317L455.413 157.8L457.928 164.474L457.927 164.474L464.965 165.601L454.797 168.317ZM467.26 153.018L465.687 164.708L458.692 163.536L456.138 156.909L467.26 153.018Z" fill="#315EFB"/>
<path d="M425.625 155.851H434.213" stroke="#28BC00" stroke-width="2" stroke-linecap="round" stroke-linejoin="round"/>
<path d="M439.043 164.449H416.5" stroke="#28BC00" stroke-width="2" stroke-linecap="round" stroke-linejoin="round"/>
<path d="M111.103 154.776H125.594" stroke="#28BC00" stroke-width="2" stroke-linecap="round" stroke-linejoin="round"/>
<path d="M137.402 163.375H114.86" stroke="#28BC00" stroke-width="2" stroke-linecap="round" stroke-linejoin="round"/>
<path fill-rule="evenodd" clip-rule="evenodd" d="M96.818 60.1383C93.1542 53.8801 95.2475 45.8024 101.511 42.1261C107.775 38.4498 115.836 40.567 119.5 46.8252C123.164 53.0834 121.071 61.161 114.807 64.8374C108.544 68.5137 100.482 66.3965 96.818 60.1383ZM113.669 54.0107L109.136 56.6713C109.27 56.0341 109.384 55.3928 109.478 54.7484C109.735 53.1265 109.982 51.5029 110.219 49.8779C110.239 49.7452 110.268 49.6071 110.298 49.4673C110.383 49.0719 110.47 48.6655 110.351 48.3441C110.142 47.7595 109.801 47.2194 109.45 46.6638C109.305 46.4368 109.164 46.2074 109.027 45.9757L106.214 47.6267L105.06 45.6557L102.806 46.9789L103.989 48.9999L101.408 50.5147L102.821 52.929L107.169 50.3773C107.115 50.685 107.063 50.9731 107.011 51.2527C106.946 51.6086 106.884 51.9502 106.826 52.3002C106.569 53.9222 106.322 55.5458 106.086 57.1709C106.07 57.3154 106.04 57.4686 106.01 57.6234C105.938 57.9976 105.863 58.3833 105.977 58.6912C106.186 59.2768 106.528 59.8182 106.874 60.3663C107.013 60.5869 107.153 60.8082 107.286 61.0343L110.075 59.3968L111.244 61.3933L113.592 60.0156C113.372 59.6911 113.155 59.3649 112.941 59.0371C112.729 58.7154 112.517 58.3936 112.293 58.0626L115.082 56.4255L113.668 54.0109L113.669 54.0107Z" fill="#315EFB"/>
<path d="M120.764 70.939L126.131 76.3131" stroke="#28BC00" stroke-width="2" stroke-linecap="round" stroke-linejoin="round"/>
<path d="M390.738 56.4287C390.738 40.1253 403.954 26.8708 420.258 26.8708C436.561 26.8708 449.778 40.1253 449.778 56.4287C449.778 72.7322 436.561 85.9866 420.258 85.9866C403.954 85.9866 390.738 72.7322 390.738 56.4287Z" fill="white"/>
<path fill-rule="evenodd" clip-rule="evenodd" d="M419.184 30.0952C404.066 30.0952 391.811 42.3857 391.811 57.5034C391.811 72.6212 404.066 84.9117 419.184 84.9117C434.302 84.9117 446.557 72.6212 446.557 57.5034C446.557 42.3857 434.302 30.0952 419.184 30.0952ZM425.555 47.3029C429.289 48.5906 432.02 50.521 431.483 54.1119C431.095 56.7406 429.64 58.0132 427.707 58.4593C430.36 59.8423 431.711 61.9633 430.425 65.6402C428.828 70.2069 425.037 70.5923 419.994 69.6368L418.77 74.5475L415.813 73.8096L417.021 68.9646C416.254 68.774 415.471 68.5716 414.664 68.3524L413.452 73.2201L410.499 72.4822L411.722 67.5622C411.446 67.4914 411.168 67.4188 410.889 67.3457C410.468 67.2361 410.044 67.1252 409.614 67.0174L405.766 66.0568L407.234 62.6675C407.234 62.6675 409.413 63.2477 409.383 63.2047C410.221 63.4122 410.592 62.8657 410.739 62.5014L412.672 54.7385C412.745 54.756 412.816 54.7738 412.885 54.791L412.985 54.8161C412.867 54.7689 412.76 54.7385 412.677 54.7174L414.057 49.1759C414.093 48.5468 413.877 47.7532 412.679 47.4538C412.725 47.4226 410.531 46.9192 410.531 46.9192L411.318 43.7567L415.396 44.7762L415.393 44.7914C416.006 44.9441 416.638 45.0891 417.281 45.2359L418.493 40.3732L421.449 41.1111L420.261 45.8785C421.054 46.0598 421.853 46.2428 422.63 46.4368L423.809 41.7006L426.767 42.4385L425.555 47.3029ZM424.727 63.5986C423.888 66.972 418.615 65.5773 416.202 64.9392C415.985 64.8818 415.791 64.8305 415.625 64.7894L417.249 58.2713C417.451 58.3216 417.697 58.3769 417.976 58.4396L417.976 58.4396C420.471 59.0003 425.586 60.1494 424.727 63.5986ZM418.477 55.4147C420.489 55.9523 424.877 57.1248 425.641 54.0588C426.422 50.9227 422.157 49.9774 420.074 49.5157C419.84 49.4638 419.633 49.4179 419.464 49.3758L417.992 55.2876C418.131 55.3223 418.294 55.3659 418.477 55.4147Z" fill="#315EFB"/>
<path fill-rule="evenodd" clip-rule="evenodd" d="M75.8689 146.514C68.946 152.636 68.2943 163.222 74.4044 170.15C80.5146 177.077 91.0872 177.738 98.0101 171.616C104.933 165.494 105.585 154.907 99.4746 147.98C93.3644 141.053 82.7918 140.392 75.8689 146.514ZM85.7369 151.814C87.9668 150.891 89.997 150.67 91.2017 152.531C92.0856 153.892 91.9332 155.064 91.2286 156.051C93.0022 155.61 94.4771 156.035 95.3733 158.239C96.487 160.977 94.9063 162.689 92.2112 164.293L93.6343 167.038L91.982 167.897L90.5782 165.189C90.1502 165.413 89.7098 165.637 89.2517 165.863L90.6628 168.583L89.0122 169.441L87.5853 166.693C87.4303 166.772 87.2738 166.851 87.1162 166.931L87.1162 166.931L87.1161 166.931C86.8794 167.051 86.6402 167.172 86.3999 167.297L84.2496 168.416L83.5529 166.269C83.5529 166.269 84.785 165.652 84.7542 165.645C85.2214 165.401 85.1707 165 85.0907 164.774L82.8407 160.436C82.8809 160.414 82.9206 160.394 82.9589 160.374L82.9591 160.374L83.0151 160.345C82.942 160.371 82.8808 160.4 82.8345 160.424L81.2279 157.328C80.9904 157.025 80.5708 156.749 79.9014 157.097C79.91 157.064 78.7019 157.722 78.7019 157.722L77.7848 155.955L80.0641 154.771L80.0687 154.779C80.4111 154.601 80.759 154.411 81.1129 154.218L79.7039 151.5L81.3553 150.641L82.7371 153.305C83.1737 153.067 83.6132 152.828 84.0475 152.602L82.6745 149.955L84.3267 149.096L85.7369 151.814ZM91.9393 159.612C92.9179 161.496 89.9397 162.993 88.577 163.678C88.4544 163.739 88.3448 163.794 88.2524 163.842L86.3633 160.2C86.4759 160.142 86.611 160.067 86.764 159.983C88.1333 159.229 90.9395 157.684 91.9393 159.612ZM85.772 158.395C86.9103 157.826 89.3934 156.586 88.505 154.873C87.5958 153.12 85.2609 154.415 84.1205 155.047C83.9923 155.118 83.8791 155.181 83.7848 155.23L85.4985 158.533C85.5762 158.493 85.6685 158.446 85.772 158.395Z" fill="#315EFB"/>
<path d="M179.267 298.266L195.906 281.606" stroke="#28BC00" stroke-width="2" stroke-linecap="round" stroke-linejoin="round"/>
<path d="M190.001 299.878L213.081 276.769" stroke="#28BC00" stroke-width="2" stroke-linecap="round" stroke-linejoin="round"/>
<path d="M378.93 96.1975L391.274 83.8369" stroke="#28BC00" stroke-width="2" stroke-linecap="round" stroke-linejoin="round"/>
<path d="M399.862 87.0614L379.466 107.483" stroke="#28BC00" stroke-width="2" stroke-linecap="round" stroke-linejoin="round"/>
<path d="M123.447 63.9525L135.255 75.7757" stroke="#28BC00" stroke-width="2" stroke-linecap="round" stroke-linejoin="round"/>
<path d="M408.986 282.681L416.501 290.205" stroke="#28BC00" stroke-width="2" stroke-linecap="round" stroke-linejoin="round"/>
<path d="M395.031 279.994L413.28 298.266" stroke="#28BC00" stroke-width="2" stroke-linecap="round" stroke-linejoin="round"/>
<path d="M470.71 264.409L475.004 268.708" stroke="#28BC00" stroke-width="2" stroke-linecap="round" stroke-linejoin="round"/>
<path d="M459.976 263.334L467.49 270.858" stroke="#28BC00" stroke-width="2" stroke-linecap="round" stroke-linejoin="round"/>
<defs>
<linearGradient id="paint0_linear" x1="232.767" y1="72.1871" x2="175.95" y2="-7.45499" gradientUnits="userSpaceOnUse">
<stop stop-color="#28BC00"/>
<stop offset="1" stop-color="#28BC00" stop-opacity="0"/>
</linearGradient>
<linearGradient id="paint1_linear" x1="79.9723" y1="92.4357" x2="69.2378" y2="92.4357" gradientUnits="userSpaceOnUse">
<stop stop-color="#EEEEFF"/>
<stop offset="1" stop-color="#EEEEFF" stop-opacity="0"/>
</linearGradient>
<linearGradient id="paint2_linear" x1="408.45" y1="113.932" x2="397.715" y2="113.932" gradientUnits="userSpaceOnUse">
<stop stop-color="#EEEEFF"/>
<stop offset="1" stop-color="#EEEEFF" stop-opacity="0"/>
</linearGradient>
<linearGradient id="paint3_linear" x1="486.812" y1="67.7144" x2="476.077" y2="67.7144" gradientUnits="userSpaceOnUse">
<stop stop-color="#EEEEFF"/>
<stop offset="1" stop-color="#EEEEFF" stop-opacity="0"/>
</linearGradient>
<linearGradient id="paint4_linear" x1="147.6" y1="276.232" x2="136.865" y2="276.232" gradientUnits="userSpaceOnUse">
<stop stop-color="#EEEEFF"/>
<stop offset="1" stop-color="#EEEEFF" stop-opacity="0"/>
</linearGradient>
<linearGradient id="paint5_linear" x1="385.732" y1="238.638" x2="117.377" y2="208.73" gradientUnits="userSpaceOnUse">
<stop/>
<stop offset="1" stop-opacity="0"/>
</linearGradient>
<linearGradient id="paint6_linear" x1="347.999" y1="192.686" x2="317.652" y2="189.968" gradientUnits="userSpaceOnUse">
<stop stop-color="#DADAFF"/>
<stop offset="1" stop-color="#EEEEFF" stop-opacity="0"/>
</linearGradient>
<linearGradient id="paint7_linear" x1="323.662" y1="63.23" x2="169.302" y2="48.7865" gradientUnits="userSpaceOnUse">
<stop stop-color="#DADAFF"/>
<stop offset="1" stop-color="#EEEEFF" stop-opacity="0"/>
</linearGradient>
<linearGradient id="paint8_linear" x1="386.141" y1="215.738" x2="378.541" y2="208.147" gradientUnits="userSpaceOnUse">
<stop stop-color="#EEEEFF"/>
<stop offset="1" stop-color="#EEEEFF" stop-opacity="0"/>
</linearGradient>
<linearGradient id="paint9_linear" x1="315.258" y1="319.943" x2="-80.9766" y2="267.991" gradientUnits="userSpaceOnUse">
<stop stop-color="#FFE600"/>
<stop offset="1" stop-color="#EEEEFF" stop-opacity="0"/>
</linearGradient>
<linearGradient id="paint10_linear" x1="378.136" y1="364.203" x2="312.784" y2="258.713" gradientUnits="userSpaceOnUse">
<stop stop-color="#28BC00"/>
<stop offset="1" stop-color="#28BC00" stop-opacity="0"/>
</linearGradient>
<linearGradient id="paint11_linear" x1="541.804" y1="212.947" x2="414.525" y2="199.829" gradientUnits="userSpaceOnUse">
<stop stop-color="#DADAFF"/>
<stop offset="1" stop-color="#EEEEFF" stop-opacity="0"/>
</linearGradient>
</defs>
</svg>
