<svg width="262" height="155" viewBox="0 0 262 155" fill="none" xmlns="http://www.w3.org/2000/svg">
<rect width="262" height="155" rx="20" fill="#315EFB"/>
<mask id="mask0" mask-type="alpha" maskUnits="userSpaceOnUse" x="0" y="0" width="262" height="155">
<rect width="262" height="155" rx="20" fill="#F44771"/>
</mask>
<g mask="url(#mask0)">
<rect width="287.005" height="143.503" rx="50" transform="matrix(0.6455 0.76376 -0.6455 0.76376 209.221 0)" fill="white" fill-opacity="0.1"/>
<rect x="158.51" y="-32.55" width="262" height="155" rx="50" fill="white" fill-opacity="0.3"/>
<rect x="0.596429" y="-0.310657" width="305.06" height="132.296" rx="49.5" transform="matrix(0.254532 -0.967064 0.938327 0.34575 91.1258 77.8032)" stroke="white" stroke-opacity="0.3"/>
</g>
<path d="M46.6259 43.184V45.776H44.1539V48.488H41.2499V45.776H38.7779V43.184H41.2499V40.472H44.1539V43.184H46.6259ZM54.2317 56.048V52.472H47.2237V49.616L55.2637 39.296H57.4477V49.592H59.5597V52.472H57.4477V56.048H54.2317ZM50.4397 49.592H54.5917V44.168L50.4397 49.592ZM61.8466 53V49.544H64.4866V53H61.8466ZM79.2852 47.96C79.2852 48.76 79.1172 49.48 78.7812 50.12C78.4612 50.76 78.0132 51.312 77.4372 51.776C76.8772 52.24 76.2212 52.6 75.4692 52.856C74.7172 53.096 73.9172 53.216 73.0692 53.216C72.2212 53.216 71.4212 53.088 70.6692 52.832C69.9172 52.56 69.2612 52.184 68.7012 51.704C68.1412 51.224 67.7012 50.656 67.3812 50C67.0612 49.344 66.9012 48.624 66.9012 47.84C66.9012 47.36 66.9812 46.92 67.1412 46.52C67.3012 46.104 67.5092 45.728 67.7652 45.392C68.0212 45.056 68.3012 44.76 68.6052 44.504C68.9252 44.248 69.2452 44.04 69.5652 43.88C68.9732 43.592 68.4692 43.16 68.0532 42.584C67.6372 42.008 67.4292 41.376 67.4292 40.688C67.4292 39.92 67.5972 39.248 67.9332 38.672C68.2852 38.08 68.7332 37.584 69.2772 37.184C69.8372 36.784 70.4452 36.48 71.1012 36.272C71.7732 36.064 72.4372 35.96 73.0932 35.96C73.7332 35.96 74.3892 36.064 75.0612 36.272C75.7492 36.464 76.3652 36.76 76.9092 37.16C77.4532 37.56 77.9012 38.056 78.2532 38.648C78.6052 39.224 78.7812 39.896 78.7812 40.664C78.7812 41 78.7252 41.336 78.6132 41.672C78.5012 41.992 78.3412 42.296 78.1332 42.584C77.9412 42.856 77.7092 43.104 77.4372 43.328C77.1652 43.552 76.8772 43.736 76.5732 43.88C76.9252 44.056 77.2612 44.28 77.5812 44.552C77.9012 44.808 78.1892 45.112 78.4452 45.464C78.7012 45.8 78.9012 46.176 79.0452 46.592C79.2052 47.008 79.2852 47.464 79.2852 47.96ZM76.0212 47.768C76.0212 47.368 75.9332 47.008 75.7572 46.688C75.5972 46.368 75.3732 46.104 75.0852 45.896C74.8132 45.672 74.5012 45.504 74.1492 45.392C73.7972 45.28 73.4372 45.224 73.0692 45.224C72.6852 45.224 72.3172 45.288 71.9652 45.416C71.6132 45.528 71.3012 45.696 71.0292 45.92C70.7732 46.144 70.5652 46.416 70.4052 46.736C70.2452 47.04 70.1652 47.384 70.1652 47.768C70.1652 48.152 70.2452 48.504 70.4052 48.824C70.5812 49.128 70.8052 49.392 71.0772 49.616C71.3492 49.84 71.6612 50.016 72.0132 50.144C72.3652 50.256 72.7252 50.312 73.0932 50.312C73.4772 50.312 73.8452 50.248 74.1972 50.12C74.5492 49.992 74.8612 49.816 75.1332 49.592C75.4052 49.368 75.6212 49.104 75.7812 48.8C75.9412 48.48 76.0212 48.136 76.0212 47.768ZM70.6932 40.784C70.6932 41.12 70.7652 41.416 70.9092 41.672C71.0532 41.912 71.2372 42.12 71.4612 42.296C71.7012 42.456 71.9572 42.584 72.2292 42.68C72.5172 42.76 72.8052 42.8 73.0932 42.8C73.3652 42.8 73.6452 42.76 73.9332 42.68C74.2212 42.584 74.4772 42.448 74.7012 42.272C74.9412 42.096 75.1332 41.888 75.2772 41.648C75.4212 41.392 75.4932 41.096 75.4932 40.76C75.4932 40.168 75.2532 39.696 74.7732 39.344C74.3092 38.992 73.7412 38.816 73.0692 38.816C72.4132 38.816 71.8532 39 71.3892 39.368C70.9252 39.72 70.6932 40.192 70.6932 40.784ZM91.6096 50.096V53H81.8656V50.096H85.2736V42.824C85.1296 43.016 84.8976 43.216 84.5776 43.424C84.2736 43.616 83.9376 43.8 83.5696 43.976C83.2016 44.152 82.8176 44.296 82.4176 44.408C82.0336 44.52 81.6896 44.576 81.3856 44.576V41.576C81.6736 41.576 82.0256 41.488 82.4416 41.312C82.8576 41.12 83.2656 40.896 83.6656 40.64C84.0656 40.384 84.4096 40.136 84.6976 39.896C85.0016 39.64 85.1936 39.44 85.2736 39.296H88.5616V50.096H91.6096ZM101.333 47.336C102.325 47.512 103.125 47.992 103.733 48.776C104.357 49.544 104.669 50.488 104.669 51.608C104.669 52.36 104.517 53.04 104.213 53.648C103.925 54.256 103.509 54.768 102.965 55.184C102.437 55.616 101.789 55.944 101.021 56.168C100.253 56.408 99.389 56.528 98.429 56.528C97.213 56.528 96.133 56.328 95.189 55.928C94.261 55.544 93.485 54.976 92.861 54.224L94.685 51.944C95.101 52.472 95.597 52.88 96.173 53.168C96.749 53.456 97.469 53.6 98.333 53.6C99.309 53.6 100.053 53.408 100.565 53.024C101.077 52.64 101.333 52.048 101.333 51.248C101.333 50.416 101.037 49.776 100.445 49.328C99.853 48.88 98.957 48.656 97.757 48.656H97.085V46.256H97.829C98.821 46.256 99.589 46.04 100.133 45.608C100.677 45.16 100.949 44.592 100.949 43.904C100.949 43.248 100.725 42.76 100.277 42.44C99.829 42.12 99.245 41.96 98.525 41.96C97.789 41.96 97.125 42.128 96.533 42.464C95.957 42.8 95.485 43.272 95.117 43.88L93.101 41.624C93.341 41.256 93.661 40.928 94.061 40.64C94.461 40.336 94.909 40.08 95.405 39.872C95.917 39.648 96.469 39.48 97.061 39.368C97.653 39.24 98.261 39.176 98.885 39.176C99.701 39.176 100.445 39.28 101.117 39.488C101.789 39.696 102.365 39.984 102.845 40.352C103.341 40.72 103.717 41.168 103.973 41.696C104.245 42.208 104.381 42.784 104.381 43.424C104.381 43.904 104.309 44.36 104.165 44.792C104.021 45.224 103.813 45.616 103.541 45.968C103.269 46.32 102.941 46.616 102.557 46.856C102.189 47.096 101.781 47.256 101.333 47.336ZM121.393 53L117.745 47.552L116.017 49.256V53H112.801V35.48H116.017V46.112L121.057 40.448H124.489L119.809 45.776L124.825 53H121.393ZM141.784 40.424H144.832L139.576 53H136.936L134.776 47.48L132.64 53H130L124.768 40.424H127.792L131.536 49.976L133.072 45.896L130.864 40.448H133.456L134.776 44.312L136.12 40.448H138.712L136.528 45.896L138.04 49.976L141.784 40.424ZM160.957 35.96V53H157.669V45.728H149.941V53H146.629V35.96H149.941V42.848H157.669V35.96H160.957Z" fill="white"/>
<g clip-path="url(#clip0)">
<path fill-rule="evenodd" clip-rule="evenodd" d="M31.9612 97.568C31.7623 97.344 31.4124 97.344 31.2135 97.568L24.779 104.812C24.4926 105.135 24.7215 105.644 25.1528 105.644H27.5875C27.8636 105.644 28.0875 105.868 28.0875 106.144V112.394C28.0875 112.67 28.3113 112.894 28.5875 112.894H34.5875C34.8636 112.894 35.0875 112.67 35.0875 112.394V106.144C35.0875 105.868 35.3113 105.644 35.5875 105.644H38.0218C38.4532 105.644 38.6821 105.135 38.3957 104.812L31.9612 97.568L32.335 97.2359L31.9612 97.568ZM30.4659 96.9039C31.0626 96.2321 32.1121 96.2321 32.7088 96.9039L39.1433 104.148C40.0027 105.116 39.3159 106.644 38.0218 106.644H36.0875V112.394C36.0875 113.223 35.4159 113.894 34.5875 113.894H28.5875C27.759 113.894 27.0875 113.223 27.0875 112.394V106.644H25.1528C23.8588 106.644 23.172 105.116 24.0314 104.148L30.4659 96.9039Z" fill="white"/>
</g>
<defs>
<clipPath id="clip0">
<rect width="74.67" height="46.5" fill="white" transform="translate(19.6499 82.15)"/>
</clipPath>
</defs>
</svg>
