<svg width="262" height="155" viewBox="0 0 262 155" fill="none" xmlns="http://www.w3.org/2000/svg">
<rect width="262" height="155" rx="20" fill="#FF9B21"/>
<mask id="mask0" mask-type="alpha" maskUnits="userSpaceOnUse" x="0" y="0" width="262" height="155">
<rect width="262" height="155" rx="20" fill="#F44771"/>
</mask>
<g mask="url(#mask0)">
<rect width="287.005" height="143.503" rx="50" transform="matrix(0.6455 0.76376 -0.6455 0.76376 209.221 0)" fill="white" fill-opacity="0.1"/>
<rect x="158.51" y="-32.55" width="262" height="155" rx="50" fill="white" fill-opacity="0.3"/>
<rect x="0.596429" y="-0.310657" width="305.06" height="132.296" rx="49.5" transform="matrix(0.254532 -0.967064 0.938327 0.34575 91.1258 77.8032)" stroke="white" stroke-opacity="0.3"/>
</g>
<path d="M42.976 43.184V45.776H40.504V48.488H37.6V45.776H35.128V43.184H37.6V40.472H40.504V43.184H42.976ZM50.5818 56.048V52.472H43.5738V49.616L51.6138 39.296H53.7978V49.592H55.9098V52.472H53.7978V56.048H50.5818ZM46.7898 49.592H50.9418V44.168L46.7898 49.592ZM58.1967 53V49.544H60.8367V53H58.1967ZM62.9633 45.224C62.9633 44.392 63.1233 43.616 63.4433 42.896C63.7633 42.176 64.1953 41.552 64.7393 41.024C65.2993 40.48 65.9553 40.056 66.7073 39.752C67.4753 39.448 68.2993 39.296 69.1793 39.296C70.1393 39.296 71.0033 39.472 71.7713 39.824C72.5553 40.176 73.2193 40.688 73.7633 41.36C74.3073 42.032 74.7233 42.856 75.0113 43.832C75.3153 44.792 75.4673 45.888 75.4673 47.12C75.4673 48.672 75.3073 50.048 74.9873 51.248C74.6833 52.432 74.2433 53.424 73.6673 54.224C73.1073 55.04 72.4193 55.656 71.6033 56.072C70.7873 56.488 69.8753 56.696 68.8673 56.696C67.7953 56.696 66.8033 56.464 65.8913 56C64.9793 55.536 64.2113 54.872 63.5873 54.008L65.4353 51.992C65.8193 52.6 66.3153 53.072 66.9233 53.408C67.5313 53.744 68.1953 53.912 68.9153 53.912C69.9873 53.912 70.8353 53.488 71.4593 52.64C72.0993 51.792 72.4353 50.592 72.4673 49.04C72.1473 49.616 71.6753 50.072 71.0513 50.408C70.4273 50.744 69.7073 50.912 68.8913 50.912C68.0433 50.912 67.2593 50.768 66.5393 50.48C65.8193 50.192 65.1953 49.792 64.6673 49.28C64.1393 48.768 63.7233 48.168 63.4193 47.48C63.1153 46.776 62.9633 46.024 62.9633 45.224ZM69.1793 42.008C68.7473 42.008 68.3393 42.096 67.9553 42.272C67.5873 42.432 67.2593 42.664 66.9713 42.968C66.6833 43.256 66.4513 43.6 66.2753 44C66.1153 44.384 66.0353 44.792 66.0353 45.224C66.0353 45.656 66.1153 46.064 66.2753 46.448C66.4513 46.816 66.6753 47.144 66.9473 47.432C67.2353 47.72 67.5713 47.944 67.9553 48.104C68.3393 48.264 68.7473 48.344 69.1793 48.344C69.6113 48.344 70.0193 48.264 70.4033 48.104C70.7873 47.944 71.1153 47.72 71.3873 47.432C71.6753 47.144 71.8993 46.816 72.0593 46.448C72.2353 46.064 72.3233 45.656 72.3233 45.224C72.3233 44.792 72.2353 44.384 72.0593 44C71.8993 43.6 71.6753 43.256 71.3873 42.968C71.0993 42.68 70.7633 42.448 70.3793 42.272C70.0113 42.096 69.6113 42.008 69.1793 42.008ZM89.9361 47.312C89.9361 48.144 89.7761 48.92 89.4561 49.64C89.1361 50.36 88.6961 50.992 88.1361 51.536C87.5761 52.064 86.9121 52.48 86.1441 52.784C85.3921 53.088 84.5761 53.24 83.6961 53.24C82.7361 53.24 81.8641 53.064 81.0801 52.712C80.3121 52.36 79.6561 51.848 79.1121 51.176C78.5681 50.504 78.1521 49.688 77.8641 48.728C77.5761 47.752 77.4321 46.648 77.4321 45.416C77.4321 43.864 77.5841 42.496 77.8881 41.312C78.1921 40.112 78.6321 39.112 79.2081 38.312C79.7841 37.496 80.4801 36.88 81.2961 36.464C82.1121 36.048 83.0241 35.84 84.0321 35.84C85.1041 35.84 86.0881 36.072 86.9841 36.536C87.8961 37 88.6641 37.664 89.2881 38.528L87.4401 40.544C87.0561 39.936 86.5601 39.464 85.9521 39.128C85.3441 38.792 84.6881 38.624 83.9841 38.624C82.9121 38.624 82.0561 39.048 81.4161 39.896C80.7761 40.744 80.4401 41.944 80.4081 43.496C80.7441 42.92 81.2161 42.464 81.8241 42.128C82.4481 41.792 83.1681 41.624 83.9841 41.624C84.8161 41.624 85.5921 41.768 86.3121 42.056C87.0481 42.344 87.6801 42.744 88.2081 43.256C88.7521 43.768 89.1761 44.376 89.4801 45.08C89.7841 45.768 89.9361 46.512 89.9361 47.312ZM83.7201 50.528C84.1361 50.528 84.5361 50.448 84.9201 50.288C85.3041 50.112 85.6401 49.88 85.9281 49.592C86.2161 49.288 86.4401 48.944 86.6001 48.56C86.7761 48.16 86.8641 47.744 86.8641 47.312C86.8641 46.88 86.7761 46.48 86.6001 46.112C86.4401 45.728 86.2161 45.392 85.9281 45.104C85.6401 44.816 85.3041 44.592 84.9201 44.432C84.5521 44.272 84.1521 44.192 83.7201 44.192C83.2881 44.192 82.8801 44.272 82.4961 44.432C82.1121 44.592 81.7761 44.816 81.4881 45.104C81.2001 45.392 80.9761 45.728 80.8161 46.112C80.6561 46.48 80.5761 46.88 80.5761 47.312C80.5761 47.744 80.6561 48.16 80.8161 48.56C80.9921 48.944 81.2241 49.28 81.5121 49.568C81.8001 49.856 82.1281 50.088 82.4961 50.264C82.8801 50.44 83.2881 50.528 83.7201 50.528ZM107.01 35.96L95.1063 53H91.5543L103.434 35.96H107.01ZM115.32 36.008H118.368L120.288 41.648L122.208 36.008H125.28L122.376 43.76L124.536 49.208L129.36 35.96H132.96L126.024 53H123.24L120.288 45.848L117.336 53H114.552L107.664 35.96H111.216L116.064 49.208L118.176 43.76L115.32 36.008ZM136.63 53.24C136.022 53.24 135.454 53.144 134.926 52.952C134.398 52.744 133.942 52.464 133.558 52.112C133.174 51.744 132.87 51.32 132.646 50.84C132.438 50.36 132.334 49.832 132.334 49.256C132.334 48.664 132.462 48.12 132.718 47.624C132.99 47.112 133.358 46.68 133.822 46.328C134.302 45.976 134.87 45.704 135.526 45.512C136.182 45.304 136.902 45.2 137.686 45.2C138.246 45.2 138.79 45.248 139.318 45.344C139.862 45.44 140.342 45.576 140.758 45.752V45.032C140.758 44.2 140.518 43.56 140.038 43.112C139.574 42.664 138.878 42.44 137.95 42.44C137.278 42.44 136.622 42.56 135.982 42.8C135.342 43.04 134.686 43.392 134.014 43.856L133.03 41.816C134.646 40.744 136.39 40.208 138.262 40.208C140.07 40.208 141.47 40.656 142.462 41.552C143.47 42.432 143.974 43.712 143.974 45.392V49.304C143.974 49.64 144.03 49.88 144.142 50.024C144.27 50.168 144.47 50.248 144.742 50.264V53C144.198 53.112 143.726 53.168 143.326 53.168C142.718 53.168 142.246 53.032 141.91 52.76C141.59 52.488 141.39 52.128 141.31 51.68L141.238 50.984C140.678 51.72 139.998 52.28 139.198 52.664C138.398 53.048 137.542 53.24 136.63 53.24ZM137.542 50.888C138.086 50.888 138.598 50.792 139.078 50.6C139.574 50.408 139.958 50.152 140.23 49.832C140.582 49.56 140.758 49.256 140.758 48.92V47.48C140.374 47.336 139.958 47.224 139.51 47.144C139.062 47.048 138.63 47 138.214 47C137.382 47 136.702 47.192 136.174 47.576C135.646 47.944 135.382 48.416 135.382 48.992C135.382 49.536 135.59 49.992 136.006 50.36C136.422 50.712 136.934 50.888 137.542 50.888ZM154.422 52.352C153.99 52.544 153.462 52.736 152.838 52.928C152.214 53.12 151.558 53.216 150.87 53.216C150.422 53.216 149.998 53.16 149.598 53.048C149.214 52.936 148.87 52.76 148.566 52.52C148.278 52.264 148.046 51.944 147.87 51.56C147.694 51.16 147.606 50.68 147.606 50.12V42.896H145.95V40.424H147.606V36.344H150.822V40.424H153.462V42.896H150.822V49.04C150.822 49.488 150.934 49.808 151.158 50C151.398 50.176 151.686 50.264 152.022 50.264C152.358 50.264 152.686 50.208 153.006 50.096C153.326 49.984 153.582 49.888 153.774 49.808L154.422 52.352ZM163.633 52.352C163.201 52.544 162.673 52.736 162.049 52.928C161.425 53.12 160.769 53.216 160.081 53.216C159.633 53.216 159.209 53.16 158.809 53.048C158.425 52.936 158.081 52.76 157.777 52.52C157.489 52.264 157.257 51.944 157.081 51.56C156.905 51.16 156.817 50.68 156.817 50.12V42.896H155.161V40.424H156.817V36.344H160.033V40.424H162.673V42.896H160.033V49.04C160.033 49.488 160.145 49.808 160.369 50C160.609 50.176 160.897 50.264 161.233 50.264C161.569 50.264 161.897 50.208 162.217 50.096C162.537 49.984 162.793 49.888 162.985 49.808L163.633 52.352ZM170.06 53.24C169.004 53.24 167.972 53.072 166.964 52.736C165.956 52.4 165.092 51.92 164.372 51.296L165.572 49.28C166.34 49.824 167.084 50.24 167.804 50.528C168.54 50.8 169.268 50.936 169.988 50.936C170.628 50.936 171.132 50.816 171.5 50.576C171.868 50.336 172.052 49.992 172.052 49.544C172.052 49.096 171.836 48.768 171.404 48.56C170.972 48.352 170.268 48.112 169.292 47.84C168.476 47.616 167.78 47.4 167.204 47.192C166.628 46.984 166.164 46.752 165.812 46.496C165.46 46.224 165.204 45.92 165.044 45.584C164.884 45.232 164.804 44.816 164.804 44.336C164.804 43.696 164.924 43.12 165.164 42.608C165.42 42.096 165.772 41.664 166.22 41.312C166.668 40.944 167.188 40.664 167.78 40.472C168.388 40.28 169.044 40.184 169.748 40.184C170.692 40.184 171.572 40.32 172.388 40.592C173.22 40.864 173.98 41.304 174.668 41.912L173.372 43.856C172.732 43.376 172.108 43.024 171.5 42.8C170.908 42.576 170.316 42.464 169.724 42.464C169.18 42.464 168.724 42.576 168.356 42.8C167.988 43.024 167.804 43.384 167.804 43.88C167.804 44.104 167.844 44.288 167.924 44.432C168.02 44.576 168.164 44.704 168.356 44.816C168.548 44.928 168.796 45.04 169.1 45.152C169.42 45.248 169.812 45.352 170.276 45.464C171.14 45.688 171.876 45.912 172.484 46.136C173.108 46.36 173.612 46.616 173.996 46.904C174.396 47.192 174.684 47.528 174.86 47.912C175.052 48.28 175.148 48.728 175.148 49.256C175.148 50.488 174.692 51.464 173.78 52.184C172.868 52.888 171.628 53.24 170.06 53.24Z" fill="white"/>
<g clip-path="url(#clip0)">
<path fill-rule="evenodd" clip-rule="evenodd" d="M31.9612 97.568C31.7623 97.344 31.4124 97.344 31.2135 97.568L24.779 104.812C24.4926 105.135 24.7215 105.644 25.1528 105.644H27.5875C27.8636 105.644 28.0875 105.868 28.0875 106.144V112.394C28.0875 112.67 28.3113 112.894 28.5875 112.894H34.5875C34.8636 112.894 35.0875 112.67 35.0875 112.394V106.144C35.0875 105.868 35.3113 105.644 35.5875 105.644H38.0218C38.4532 105.644 38.6821 105.135 38.3957 104.812L31.9612 97.568L32.335 97.2359L31.9612 97.568ZM30.4659 96.9039C31.0626 96.2321 32.1121 96.2321 32.7088 96.9039L39.1433 104.148C40.0027 105.116 39.3159 106.644 38.0218 106.644H36.0875V112.394C36.0875 113.223 35.4159 113.894 34.5875 113.894H28.5875C27.759 113.894 27.0875 113.223 27.0875 112.394V106.644H25.1528C23.8588 106.644 23.172 105.116 24.0314 104.148L30.4659 96.9039Z" fill="white"/>
</g>
<defs>
<clipPath id="clip0">
<rect width="74.67" height="46.5" fill="white" transform="translate(19.6499 82.15)"/>
</clipPath>
</defs>
</svg>
