<svg width="262" height="155" viewBox="0 0 262 155" fill="none" xmlns="http://www.w3.org/2000/svg">
<rect width="262" height="155" rx="20" fill="#38D39F"/>
<mask id="mask0" mask-type="alpha" maskUnits="userSpaceOnUse" x="0" y="0" width="262" height="155">
<rect width="262" height="155" rx="20" fill="#F44771"/>
</mask>
<g mask="url(#mask0)">
<rect width="287.005" height="143.503" rx="50" transform="matrix(0.6455 0.76376 -0.6455 0.76376 209.221 0)" fill="#F7F8FA" fill-opacity="0.1"/>
<rect x="158.51" y="-32.55" width="262" height="155" rx="50" fill="white" fill-opacity="0.3"/>
<rect x="0.596429" y="-0.310657" width="305.06" height="132.296" rx="49.5" transform="matrix(0.254532 -0.967064 0.938327 0.34575 91.1258 77.8032)" stroke="white" stroke-opacity="0.1"/>
</g>
<path d="M42.976 43.184V45.776H40.504V48.488H37.6V45.776H35.128V43.184H37.6V40.472H40.504V43.184H42.976ZM50.5818 56.048V52.472H43.5738V49.616L51.6138 39.296H53.7978V49.592H55.9098V52.472H53.7978V56.048H50.5818ZM46.7898 49.592H50.9418V44.168L46.7898 49.592ZM58.1967 53V49.544H60.8367V53H58.1967ZM62.9633 45.224C62.9633 44.392 63.1233 43.616 63.4433 42.896C63.7633 42.176 64.1953 41.552 64.7393 41.024C65.2993 40.48 65.9553 40.056 66.7073 39.752C67.4753 39.448 68.2993 39.296 69.1793 39.296C70.1393 39.296 71.0033 39.472 71.7713 39.824C72.5553 40.176 73.2193 40.688 73.7633 41.36C74.3073 42.032 74.7233 42.856 75.0113 43.832C75.3153 44.792 75.4673 45.888 75.4673 47.12C75.4673 48.672 75.3073 50.048 74.9873 51.248C74.6833 52.432 74.2433 53.424 73.6673 54.224C73.1073 55.04 72.4193 55.656 71.6033 56.072C70.7873 56.488 69.8753 56.696 68.8673 56.696C67.7953 56.696 66.8033 56.464 65.8913 56C64.9793 55.536 64.2113 54.872 63.5873 54.008L65.4353 51.992C65.8193 52.6 66.3153 53.072 66.9233 53.408C67.5313 53.744 68.1953 53.912 68.9153 53.912C69.9873 53.912 70.8353 53.488 71.4593 52.64C72.0993 51.792 72.4353 50.592 72.4673 49.04C72.1473 49.616 71.6753 50.072 71.0513 50.408C70.4273 50.744 69.7073 50.912 68.8913 50.912C68.0433 50.912 67.2593 50.768 66.5393 50.48C65.8193 50.192 65.1953 49.792 64.6673 49.28C64.1393 48.768 63.7233 48.168 63.4193 47.48C63.1153 46.776 62.9633 46.024 62.9633 45.224ZM69.1793 42.008C68.7473 42.008 68.3393 42.096 67.9553 42.272C67.5873 42.432 67.2593 42.664 66.9713 42.968C66.6833 43.256 66.4513 43.6 66.2753 44C66.1153 44.384 66.0353 44.792 66.0353 45.224C66.0353 45.656 66.1153 46.064 66.2753 46.448C66.4513 46.816 66.6753 47.144 66.9473 47.432C67.2353 47.72 67.5713 47.944 67.9553 48.104C68.3393 48.264 68.7473 48.344 69.1793 48.344C69.6113 48.344 70.0193 48.264 70.4033 48.104C70.7873 47.944 71.1153 47.72 71.3873 47.432C71.6753 47.144 71.8993 46.816 72.0593 46.448C72.2353 46.064 72.3233 45.656 72.3233 45.224C72.3233 44.792 72.2353 44.384 72.0593 44C71.8993 43.6 71.6753 43.256 71.3873 42.968C71.0993 42.68 70.7633 42.448 70.3793 42.272C70.0113 42.096 69.6113 42.008 69.1793 42.008ZM89.9361 47.312C89.9361 48.144 89.7761 48.92 89.4561 49.64C89.1361 50.36 88.6961 50.992 88.1361 51.536C87.5761 52.064 86.9121 52.48 86.1441 52.784C85.3921 53.088 84.5761 53.24 83.6961 53.24C82.7361 53.24 81.8641 53.064 81.0801 52.712C80.3121 52.36 79.6561 51.848 79.1121 51.176C78.5681 50.504 78.1521 49.688 77.8641 48.728C77.5761 47.752 77.4321 46.648 77.4321 45.416C77.4321 43.864 77.5841 42.496 77.8881 41.312C78.1921 40.112 78.6321 39.112 79.2081 38.312C79.7841 37.496 80.4801 36.88 81.2961 36.464C82.1121 36.048 83.0241 35.84 84.0321 35.84C85.1041 35.84 86.0881 36.072 86.9841 36.536C87.8961 37 88.6641 37.664 89.2881 38.528L87.4401 40.544C87.0561 39.936 86.5601 39.464 85.9521 39.128C85.3441 38.792 84.6881 38.624 83.9841 38.624C82.9121 38.624 82.0561 39.048 81.4161 39.896C80.7761 40.744 80.4401 41.944 80.4081 43.496C80.7441 42.92 81.2161 42.464 81.8241 42.128C82.4481 41.792 83.1681 41.624 83.9841 41.624C84.8161 41.624 85.5921 41.768 86.3121 42.056C87.0481 42.344 87.6801 42.744 88.2081 43.256C88.7521 43.768 89.1761 44.376 89.4801 45.08C89.7841 45.768 89.9361 46.512 89.9361 47.312ZM83.7201 50.528C84.1361 50.528 84.5361 50.448 84.9201 50.288C85.3041 50.112 85.6401 49.88 85.9281 49.592C86.2161 49.288 86.4401 48.944 86.6001 48.56C86.7761 48.16 86.8641 47.744 86.8641 47.312C86.8641 46.88 86.7761 46.48 86.6001 46.112C86.4401 45.728 86.2161 45.392 85.9281 45.104C85.6401 44.816 85.3041 44.592 84.9201 44.432C84.5521 44.272 84.1521 44.192 83.7201 44.192C83.2881 44.192 82.8801 44.272 82.4961 44.432C82.1121 44.592 81.7761 44.816 81.4881 45.104C81.2001 45.392 80.9761 45.728 80.8161 46.112C80.6561 46.48 80.5761 46.88 80.5761 47.312C80.5761 47.744 80.6561 48.16 80.8161 48.56C80.9921 48.944 81.2241 49.28 81.5121 49.568C81.8001 49.856 82.1281 50.088 82.4961 50.264C82.8801 50.44 83.2881 50.528 83.7201 50.528ZM100.962 53L97.3143 47.552L95.5863 49.256V53H92.3703V35.48H95.5863V46.112L100.626 40.448H104.058L99.3783 45.776L104.394 53H100.962ZM110.04 53.072C109.192 53.072 108.424 52.904 107.736 52.568C107.048 52.232 106.448 51.776 105.936 51.2C105.44 50.608 105.056 49.928 104.784 49.16C104.512 48.392 104.376 47.576 104.376 46.712C104.376 45.8 104.52 44.952 104.808 44.168C105.096 43.384 105.496 42.696 106.008 42.104C106.52 41.512 107.136 41.048 107.856 40.712C108.576 40.376 109.368 40.208 110.232 40.208C111.208 40.208 112.064 40.432 112.8 40.88C113.536 41.312 114.144 41.896 114.624 42.632V40.424H117.432V52.4C117.432 53.328 117.256 54.16 116.904 54.896C116.552 55.632 116.064 56.256 115.44 56.768C114.832 57.28 114.096 57.672 113.232 57.944C112.384 58.216 111.456 58.352 110.448 58.352C109.072 58.352 107.912 58.12 106.968 57.656C106.04 57.208 105.24 56.568 104.568 55.736L106.32 54.032C106.8 54.624 107.4 55.088 108.12 55.424C108.856 55.76 109.632 55.928 110.448 55.928C110.944 55.928 111.416 55.856 111.864 55.712C112.328 55.584 112.736 55.376 113.088 55.088C113.44 54.8 113.712 54.432 113.904 53.984C114.112 53.536 114.216 53.008 114.216 52.4V50.816C113.8 51.536 113.216 52.096 112.464 52.496C111.712 52.88 110.904 53.072 110.04 53.072ZM111.12 50.504C111.472 50.504 111.808 50.448 112.128 50.336C112.448 50.224 112.744 50.072 113.016 49.88C113.288 49.688 113.528 49.464 113.736 49.208C113.944 48.952 114.104 48.68 114.216 48.392V45.392C113.928 44.656 113.472 44.064 112.848 43.616C112.24 43.168 111.6 42.944 110.928 42.944C110.432 42.944 109.984 43.056 109.584 43.28C109.184 43.488 108.84 43.776 108.552 44.144C108.264 44.496 108.04 44.904 107.88 45.368C107.736 45.832 107.664 46.312 107.664 46.808C107.664 47.32 107.752 47.8 107.928 48.248C108.104 48.696 108.344 49.088 108.648 49.424C108.968 49.76 109.336 50.024 109.752 50.216C110.168 50.408 110.624 50.504 111.12 50.504ZM125.377 44.36C125.377 43.32 125.561 42.296 125.929 41.288C126.313 40.264 126.865 39.352 127.585 38.552C128.305 37.752 129.185 37.104 130.225 36.608C131.265 36.112 132.449 35.864 133.777 35.864C135.345 35.864 136.697 36.208 137.833 36.896C138.985 37.584 139.841 38.48 140.401 39.584L137.857 41.336C137.633 40.856 137.361 40.456 137.041 40.136C136.721 39.8 136.377 39.536 136.009 39.344C135.641 39.152 135.257 39.016 134.857 38.936C134.457 38.84 134.065 38.792 133.681 38.792C132.849 38.792 132.121 38.96 131.497 39.296C130.889 39.632 130.377 40.072 129.961 40.616C129.561 41.144 129.257 41.752 129.049 42.44C128.841 43.112 128.737 43.784 128.737 44.456C128.737 45.208 128.857 45.936 129.097 46.64C129.337 47.328 129.673 47.936 130.105 48.464C130.553 48.992 131.081 49.416 131.689 49.736C132.313 50.056 132.993 50.216 133.729 50.216C134.113 50.216 134.513 50.168 134.929 50.072C135.345 49.976 135.737 49.824 136.105 49.616C136.489 49.408 136.841 49.144 137.161 48.824C137.481 48.488 137.737 48.088 137.929 47.624L140.641 49.184C140.369 49.824 139.977 50.392 139.465 50.888C138.969 51.368 138.401 51.776 137.761 52.112C137.137 52.448 136.465 52.704 135.745 52.88C135.025 53.056 134.321 53.144 133.633 53.144C132.417 53.144 131.305 52.888 130.297 52.376C129.289 51.864 128.417 51.2 127.681 50.384C126.961 49.552 126.393 48.616 125.977 47.576C125.577 46.52 125.377 45.448 125.377 44.36ZM154.646 45.968C154.646 47.024 154.486 48 154.166 48.896C153.862 49.776 153.43 50.544 152.87 51.2C152.326 51.84 151.67 52.344 150.902 52.712C150.15 53.064 149.334 53.24 148.454 53.24C147.558 53.24 146.734 53.064 145.982 52.712C145.23 52.344 144.574 51.84 144.014 51.2C143.47 50.544 143.038 49.776 142.718 48.896C142.414 48 142.262 47.024 142.262 45.968C142.262 44.912 142.414 43.944 142.718 43.064C143.038 42.168 143.47 41.4 144.014 40.76C144.574 40.104 145.23 39.592 145.982 39.224C146.734 38.856 147.558 38.672 148.454 38.672C149.334 38.672 150.15 38.856 150.902 39.224C151.67 39.592 152.326 40.104 152.87 40.76C153.43 41.4 153.862 42.168 154.166 43.064C154.486 43.944 154.646 44.912 154.646 45.968ZM151.406 45.968C151.406 45.328 151.334 44.744 151.19 44.216C151.046 43.672 150.838 43.208 150.566 42.824C150.31 42.44 149.998 42.144 149.63 41.936C149.278 41.728 148.886 41.624 148.454 41.624C148.006 41.624 147.598 41.728 147.23 41.936C146.878 42.144 146.566 42.44 146.294 42.824C146.038 43.208 145.838 43.672 145.694 44.216C145.55 44.744 145.478 45.328 145.478 45.968C145.478 46.608 145.55 47.192 145.694 47.72C145.838 48.248 146.038 48.704 146.294 49.088C146.566 49.472 146.878 49.768 147.23 49.976C147.598 50.184 148.006 50.288 148.454 50.288C148.886 50.288 149.278 50.184 149.63 49.976C149.998 49.768 150.31 49.472 150.566 49.088C150.838 48.704 151.046 48.248 151.19 47.72C151.334 47.192 151.406 46.608 151.406 45.968ZM156.74 53C156.74 52.28 156.796 51.632 156.908 51.056C157.02 50.464 157.212 49.92 157.484 49.424C157.772 48.928 158.156 48.464 158.636 48.032C159.132 47.6 159.756 47.176 160.508 46.76C161.164 46.408 161.74 46.104 162.236 45.848C162.748 45.576 163.172 45.328 163.508 45.104C163.844 44.88 164.1 44.656 164.276 44.432C164.452 44.192 164.54 43.92 164.54 43.616C164.54 43.136 164.348 42.728 163.964 42.392C163.58 42.04 163.028 41.864 162.308 41.864C161.924 41.864 161.572 41.92 161.252 42.032C160.932 42.128 160.628 42.264 160.34 42.44C160.068 42.616 159.812 42.816 159.572 43.04C159.348 43.248 159.14 43.472 158.948 43.712L156.884 41.336C157.092 41.112 157.388 40.872 157.772 40.616C158.156 40.344 158.604 40.096 159.116 39.872C159.644 39.632 160.22 39.44 160.844 39.296C161.484 39.136 162.164 39.056 162.884 39.056C163.7 39.056 164.428 39.16 165.068 39.368C165.708 39.56 166.244 39.84 166.676 40.208C167.124 40.56 167.46 40.992 167.684 41.504C167.924 42 168.044 42.544 168.044 43.136C168.044 43.696 167.94 44.192 167.732 44.624C167.524 45.056 167.26 45.44 166.94 45.776C166.62 46.112 166.268 46.408 165.884 46.664C165.516 46.904 165.156 47.12 164.804 47.312C164.516 47.472 164.188 47.656 163.82 47.864C163.452 48.072 163.084 48.304 162.716 48.56C162.364 48.8 162.036 49.056 161.732 49.328C161.428 49.584 161.196 49.84 161.036 50.096H168.308V53H156.74Z" fill="white"/>
<g clip-path="url(#clip0)">
<path fill-rule="evenodd" clip-rule="evenodd" d="M31.9612 97.568C31.7623 97.344 31.4124 97.344 31.2135 97.568L24.779 104.812C24.4926 105.135 24.7215 105.644 25.1528 105.644H27.5875C27.8636 105.644 28.0875 105.868 28.0875 106.144V112.394C28.0875 112.67 28.3113 112.894 28.5875 112.894H34.5875C34.8636 112.894 35.0875 112.67 35.0875 112.394V106.144C35.0875 105.868 35.3113 105.644 35.5875 105.644H38.0218C38.4532 105.644 38.6821 105.135 38.3957 104.812L31.9612 97.568L32.335 97.2359L31.9612 97.568ZM30.4659 96.9039C31.0626 96.2321 32.1121 96.2321 32.7088 96.9039L39.1433 104.148C40.0027 105.116 39.3159 106.644 38.0218 106.644H36.0875V112.394C36.0875 113.223 35.4159 113.894 34.5875 113.894H28.5875C27.759 113.894 27.0875 113.223 27.0875 112.394V106.644H25.1528C23.8588 106.644 23.172 105.116 24.0314 104.148L30.4659 96.9039Z" fill="white"/>
</g>
<defs>
<clipPath id="clip0">
<rect width="74.67" height="46.5" fill="white" transform="translate(19.6499 82.15)"/>
</clipPath>
</defs>
</svg>
