<svg width="656" height="433" viewBox="0 0 656 433" fill="none" xmlns="http://www.w3.org/2000/svg">
<path d="M9.51313 408.113C9.51313 408.113 30.5877 349.199 67.0724 348.068C105.563 346.88 104.556 390.578 135.465 389.528C166.374 388.479 163.188 373.41 203.97 371.838C244.753 370.266 281.125 408.113 281.125 408.113H9.51313Z" fill="#DCE2E5"/>
<path d="M488.948 408.113H352.728C354.519 391.3 362.466 375.743 375.039 364.438C387.613 353.133 403.923 346.878 420.832 346.878C437.741 346.878 454.052 353.133 466.625 364.438C479.198 375.743 487.145 391.3 488.936 408.113H488.948Z" fill="#DCE2E5"/>
<path d="M236.703 408.113C236.703 408.113 261.483 335.841 316.018 335.562C355.364 335.357 372.641 383.86 418.793 382.532C464.946 381.204 474.305 341.339 535.213 341.486C599.873 341.649 642.255 408.113 642.255 408.113H236.703Z" fill="#E9EEF2"/>
<path d="M297.101 233.225V407.448" stroke="#DCE2E5" stroke-width="26" stroke-miterlimit="10"/>
<path d="M316.77 70.2731C316.77 70.2731 328.85 37.9004 374.441 36.4329C420.032 34.9655 441.448 1.52023 480.054 0.037299C518.661 -1.44563 533.184 41.7955 584.119 39.5885C635.053 37.3815 656 70.2615 656 70.2615L316.77 70.2731Z" fill="#F2F6F9"/>
<path d="M236.401 127.941C236.401 127.941 219.675 94.1316 187.906 93.0939C156.137 92.0562 157.167 118.195 130.265 117.173C103.364 116.151 102.612 82.3262 67.1189 80.8007C31.6255 79.2752 0 127.941 0 127.941H236.401Z" fill="#F2F6F9"/>
<path d="M279.476 188.516H312.387C318.912 188.516 325.169 191.108 329.783 195.722C334.397 200.336 336.989 206.593 336.989 213.118V236.225H254.874V213.118C254.874 206.593 257.466 200.336 262.08 195.722C266.693 191.108 272.951 188.516 279.476 188.516Z" fill="#E9EEF2"/>
<path d="M335.978 261.486H344.767C345.605 261.489 346.429 261.265 347.15 260.838C347.872 260.411 348.464 259.797 348.865 259.061C349.266 258.325 349.46 257.494 349.427 256.656C349.394 255.819 349.135 255.006 348.678 254.303L337.004 236.226H311.744L323.747 254.83C325.066 256.874 326.877 258.554 329.014 259.717C331.151 260.88 333.545 261.488 335.978 261.486Z" fill="#E9EEF2"/>
<path d="M336.02 432.874C484.687 432.874 605.205 431.669 605.205 430.183C605.205 428.697 484.687 427.492 336.02 427.492C187.354 427.492 66.8361 428.697 66.8361 430.183C66.8361 431.669 187.354 432.874 336.02 432.874Z" fill="#E4EFF7"/>
<path d="M537.664 412.388L487.968 351.336L518.618 412.388H471.381L430.068 346.605C425.907 339.98 423.502 332.403 423.081 324.591C422.661 316.779 424.238 308.988 427.664 301.954L457.268 241.189L520.469 204.681L534.249 219.89C542.264 228.739 547.25 239.913 548.481 251.788C549.713 263.664 547.127 275.623 541.098 285.929L524.55 314.236L584.885 412.388H537.664Z" fill="#274992"/>
<path d="M515.958 412.388L524.886 430.183H444.603L478.044 412.388H515.958Z" fill="#162C56"/>
<path d="M581.002 412.388L589.926 430.183H509.647L543.088 412.388H581.002Z" fill="#162C56"/>
<path d="M483.33 142.797L535.011 157.712L527.783 224.885" stroke="#274992" stroke-width="46" stroke-linejoin="round"/>
<path d="M358.698 198.645L415.696 234.506L420.47 201.781" stroke="#274992" stroke-width="46" stroke-linejoin="round"/>
<path d="M405.195 202.873C405.195 202.873 398.923 169.041 430.552 145.74C462.181 122.439 498.593 134.151 498.593 134.151L490.14 165.239L520.476 204.681L457.268 241.189L432.837 214.69L432.062 218.829L405.195 202.873Z" fill="#72A065"/>
<path d="M505.183 184.784L441.525 224.095L432.852 214.69L432.058 218.825L406.194 203.466L497.59 137.864L490.148 165.239L505.183 184.784Z" fill="#3F3D56"/>
<path d="M519.81 311.15L524.55 314.553L522.18 321.31" stroke="white" stroke-width="3" stroke-miterlimit="10" stroke-linecap="square"/>
<path d="M432.852 214.69L405.621 185.097" stroke="white" stroke-width="3" stroke-miterlimit="10" stroke-linecap="square"/>
<path d="M490.814 165.238L488.971 173.149L464.698 169.467" stroke="white" stroke-width="3" stroke-miterlimit="10" stroke-linecap="square"/>
<path d="M400.967 118.536L428.454 153.232" stroke="#274992" stroke-width="65" stroke-linecap="round" stroke-linejoin="round"/>
<path d="M414.581 148.357L412.726 149.809C410.569 151.496 408.066 152.687 405.397 153.296C402.727 153.906 399.956 153.92 397.28 153.337C394.604 152.754 392.09 151.589 389.916 149.923C387.742 148.258 385.961 146.135 384.701 143.703L378.46 131.662C376.443 127.773 375.861 123.298 376.817 119.023C377.773 114.748 380.206 110.946 383.687 108.287C385.631 106.8 387.848 105.711 390.213 105.081C392.578 104.452 395.043 104.294 397.469 104.618C399.894 104.941 402.233 105.74 404.35 106.967C406.467 108.195 408.321 109.827 409.807 111.772L417.903 122.361C420.883 126.259 422.205 131.175 421.583 136.042C420.961 140.909 418.445 145.334 414.581 148.357Z" fill="#274992"/>
<path d="M423.126 119.698C423.126 115.913 420.058 112.844 416.275 112.844C412.491 112.844 409.423 115.913 409.423 119.698V123.581C409.423 127.366 412.491 130.434 416.275 130.434C420.058 130.434 423.126 127.366 423.126 123.581V119.698Z" fill="#274992"/>
<path d="M418.422 117.804L416.788 125.625" stroke="white" stroke-width="3" stroke-miterlimit="10" stroke-linecap="square"/>
<path d="M383.602 130.179L388.968 139.638L392.345 137.744" stroke="white" stroke-width="3" stroke-miterlimit="10" stroke-linecap="square"/>
<path d="M400.959 136.412C401.545 136.746 402.058 137.193 402.47 137.726C402.883 138.259 403.186 138.868 403.362 139.519C403.538 140.169 403.583 140.848 403.496 141.516C403.409 142.184 403.191 142.829 402.854 143.412C402.517 143.996 402.068 144.507 401.533 144.917C400.998 145.326 400.387 145.626 399.736 145.799C399.084 145.971 398.405 146.014 397.738 145.923C397.07 145.833 396.427 145.611 395.845 145.271C393.398 143.858 395.032 141.519 396.445 139.076C397.858 136.633 398.512 134.999 400.959 136.412Z" fill="white"/>
<path d="M412.637 127.259L397.901 113.286L394.416 109.968C394.079 111.64 393.468 113.245 392.608 114.718C389.51 120.089 374.836 127.732 366.829 119.082C360.301 112.027 371.669 111.396 375.734 108.21C382.111 103.196 384.395 96.2262 396.906 95.5254C411.886 94.6891 415.731 112.868 415.731 112.868C415.731 112.868 409.578 113.994 412.637 127.259Z" fill="black"/>
<path d="M410.751 151.153L416.369 146.948L414.271 155.594L410.751 151.153Z" fill="#274992"/>
<path d="M312.046 195.159L288.391 211.174L312.816 247.25L336.471 231.234L312.046 195.159Z" fill="#274992"/>
<path d="M318.413 197.68L313.471 201.015C308.288 204.511 306.921 211.547 310.418 216.73L316.088 225.134C319.585 230.316 326.621 231.683 331.803 228.186L336.746 224.851C341.928 221.355 343.295 214.319 339.798 209.136L334.128 200.733C330.632 195.55 323.596 194.183 318.413 197.68Z" stroke="#274992" stroke-width="14.0175" stroke-miterlimit="10"/>
<path d="M363.48 191.079C363.48 191.079 358.62 188.021 356.51 185.318C354.226 182.387 350.509 177.377 344.306 181.4C338.103 185.423 322.624 195.919 321.807 201.239C320.99 206.559 330.325 220.668 336.667 218.488C343.009 216.309 357.761 204.035 357.761 204.035" fill="#274992"/>
<path d="M333.914 192.888C334.371 193.478 334.687 194.165 334.838 194.897C334.989 195.628 334.971 196.384 334.785 197.108C334.785 197.108 337.72 194.707 339.505 196.721C341.484 198.97 339.915 200.844 339.915 200.844C339.915 200.844 342.754 198.629 345.026 201.049C347.528 203.709 344.252 206.187 344.252 206.187C344.252 206.187 347.222 204.515 348.79 206.9C350.358 209.285 347.895 211.674 347.895 211.674" stroke="white" stroke-width="3" stroke-miterlimit="10" stroke-linecap="square"/>
<path d="M334.975 196.941L326.585 204.271" stroke="white" stroke-width="3" stroke-miterlimit="10" stroke-linecap="square"/>
<path d="M340.252 200.612L329.5 210.253" stroke="white" stroke-width="3" stroke-miterlimit="10" stroke-linecap="square"/>
<path d="M344.72 205.847L333.473 214.291" stroke="white" stroke-width="3" stroke-miterlimit="10" stroke-linecap="square"/>
<path d="M346.072 190.069L339.799 193.104C339.799 193.104 341.209 201.499 338.75 204.43C338.75 204.43 332.203 192.481 330.875 191.8C329.547 191.118 342.73 183.556 342.73 183.556" fill="#274992"/>
<path d="M345.758 189.682L339.486 192.717C339.486 192.717 341.542 200.387 339.099 203.318" stroke="white" stroke-width="3" stroke-miterlimit="10" stroke-linecap="square"/>
<path d="M390.486 130.736C391.544 130.736 392.403 129.878 392.403 128.82C392.403 127.761 391.544 126.903 390.486 126.903C389.427 126.903 388.569 127.761 388.569 128.82C388.569 129.878 389.427 130.736 390.486 130.736Z" fill="white"/>
<path d="M380.179 135.832C381.238 135.832 382.096 134.974 382.096 133.915C382.096 132.857 381.238 131.999 380.179 131.999C379.121 131.999 378.263 132.857 378.263 133.915C378.263 134.974 379.121 135.832 380.179 135.832Z" fill="white"/>
<path d="M441.482 350.895C435.438 352.955 429.832 353.729 426.58 353.16C425.058 352.893 424.055 352.331 423.761 351.472C423.715 351.335 423.687 351.193 423.676 351.05V350.833C423.679 350.75 423.688 350.667 423.703 350.585C423.704 350.572 423.704 350.559 423.703 350.546C422.669 347.449 422.828 341.583 424.322 335.094C426.429 325.968 430.393 319.087 433.173 319.73C435.458 320.257 436.236 325.685 435.276 332.662C440.178 328.016 444.793 325.646 446.504 327.133C448.316 328.682 446.353 334.06 442.059 339.934C449.238 338.075 455.084 338.234 455.87 340.534C456.788 343.236 450.349 347.875 441.482 350.895Z" fill="#3F3D56"/>
<path d="M437.498 286.668C434.49 281.038 432.817 275.629 432.852 272.342C432.852 270.793 433.262 269.717 434.064 269.287C434.186 269.221 434.316 269.17 434.451 269.136H434.517L434.652 269.113C434.735 269.105 434.818 269.105 434.9 269.113L434.935 269.094C437.812 267.576 443.639 266.771 450.287 267.208C459.634 267.812 467.064 270.612 466.878 273.457C466.727 275.78 461.496 277.441 454.457 277.623C459.816 281.712 462.921 285.878 461.732 287.822C460.482 289.862 454.871 288.79 448.382 285.499C451.375 292.282 452.161 298.075 450.024 299.221C447.53 300.533 441.912 294.927 437.498 286.668Z" fill="#3F3D56"/>
<path d="M539.619 231.223C544.691 227.351 549.763 224.83 553.027 224.339C554.553 224.106 555.683 224.319 556.237 225.04C556.323 225.16 556.394 225.29 556.45 225.427L556.473 225.489C556.473 225.531 556.5 225.578 556.516 225.62C556.54 225.7 556.558 225.782 556.57 225.864L556.593 225.895C558.556 228.489 560.275 234.115 560.922 240.744C561.824 250.067 560.252 257.85 557.414 258.125C555.091 258.349 552.617 253.451 551.308 246.532C548.133 252.476 544.517 256.212 542.403 255.349C540.188 254.443 540.343 248.735 542.546 241.797C536.351 245.839 530.737 247.547 529.266 245.619C527.539 243.35 532.173 236.903 539.619 231.223Z" fill="#3F3D56"/>
<path d="M482.822 241.631C477.502 238.107 473.46 234.142 471.927 231.219C471.207 229.852 471.036 228.714 471.54 227.955C471.62 227.835 471.715 227.726 471.822 227.63L471.873 227.591L471.985 227.506C472.052 227.456 472.123 227.412 472.198 227.374L472.221 227.343C474.029 224.633 478.78 221.148 484.832 218.388C493.35 214.477 501.21 213.412 502.402 216.006C503.378 218.136 499.557 222.07 493.451 225.57C500.106 226.623 504.818 228.815 504.679 231.087C504.551 233.48 499.104 235.203 491.832 235.393C497.686 239.942 501.125 244.666 499.797 246.691C498.229 249.065 490.62 246.803 482.822 241.631Z" fill="#3F3D56"/>
<path d="M581.942 384.069C585.539 389.339 587.789 394.523 588.106 397.822C588.257 399.371 587.986 400.478 587.235 400.989C587.115 401.071 586.985 401.136 586.848 401.183H586.782L586.65 401.218C586.57 401.236 586.489 401.249 586.407 401.256L586.372 401.28C583.661 403.099 577.97 404.52 571.314 404.815C561.956 405.225 554.278 403.266 554.146 400.393C554.042 398.07 559.063 395.851 566.041 394.91C560.275 391.426 556.748 387.616 557.708 385.56C558.73 383.395 564.422 383.852 571.233 386.419C567.523 379.996 566.114 374.32 568.135 372.953C570.466 371.365 576.657 376.333 581.942 384.069Z" fill="#3F3D56"/>
<path d="M501.047 378.377C506.778 381.192 511.288 384.611 513.186 387.314C514.072 388.576 514.39 389.683 513.987 390.5C513.922 390.629 513.841 390.75 513.747 390.86L513.701 390.907L513.6 391.004C513.538 391.059 513.472 391.111 513.402 391.158V391.193C511.951 394.105 507.684 398.163 502.035 401.682C494.093 406.646 486.423 408.71 484.913 406.29C483.67 404.3 486.961 399.913 492.572 395.658C485.835 395.464 480.879 393.892 480.712 391.619C480.538 389.234 485.719 386.83 492.909 385.711C486.52 381.947 482.497 377.7 483.566 375.524C484.809 372.968 492.645 374.25 501.047 378.377Z" fill="#3F3D56"/>
<path d="M528.344 333.038C534.043 330.165 539.491 328.624 542.79 328.74C544.339 328.794 545.403 329.208 545.814 330.022C545.879 330.15 545.928 330.287 545.957 330.428C545.959 330.45 545.959 330.472 545.957 330.494C545.957 330.54 545.957 330.587 545.977 330.633C545.982 330.717 545.982 330.801 545.977 330.885C545.975 330.897 545.975 330.908 545.977 330.92C547.425 333.831 548.079 339.678 547.494 346.311C546.666 355.642 543.688 363.002 540.846 362.75C538.523 362.541 536.974 357.272 536.974 350.233C532.758 355.487 528.518 358.491 526.606 357.256C524.596 355.959 525.8 350.376 529.242 343.968C522.389 346.794 516.577 347.453 515.486 345.277C514.239 342.737 519.992 337.25 528.344 333.038Z" fill="#3F3D56"/>
<path d="M540.637 287.28C541.59 293.591 541.354 299.248 540.215 302.345C539.685 303.797 538.953 304.669 538.055 304.82C537.912 304.839 537.768 304.839 537.625 304.82H537.559L537.42 304.792C537.338 304.776 537.257 304.753 537.18 304.723H537.141C533.923 305.195 528.162 303.995 522.041 301.37C513.437 297.672 507.37 292.55 508.489 289.928C509.415 287.776 514.893 287.973 521.588 290.157C517.909 284.512 516.372 279.548 518.142 278.115C520.004 276.609 524.933 279.494 529.951 284.763C529.401 277.368 530.594 271.641 532.994 271.281C535.817 270.871 539.24 278.018 540.637 287.28Z" fill="#3F3D56"/>
<path d="M549.496 213.366C550.208 213.672 548.164 239.443 535.379 239.056C526.253 238.777 518.846 231.653 518.846 222.519C518.846 218.134 520.588 213.929 523.689 210.828C526.789 207.728 530.994 205.986 535.379 205.986C537.315 205.986 538.039 223.475 538.039 223.475C538.039 223.475 541.16 207.74 543.77 208.27C544.873 208.491 542.387 225.485 542.387 225.485C542.387 225.485 546.573 212.115 549.496 213.366Z" fill="#274992"/>
<path d="M454.26 240.101L517.243 203.678" stroke="white" stroke-width="14" stroke-miterlimit="10" stroke-linecap="square"/>
<path d="M487.968 351.336L474.761 335.245C471.47 331.235 469.231 326.467 468.249 321.373C467.266 316.279 467.571 311.02 469.135 306.074L485.509 254.307" stroke="white" stroke-width="3" stroke-miterlimit="10" stroke-linecap="square"/>
<path d="M178.525 352.143L152.905 354.452C145.129 355.153 139.394 362.024 140.094 369.8L140.742 376.984C141.443 384.76 148.314 390.495 156.09 389.794L181.711 387.485C189.486 386.784 195.222 379.913 194.521 372.137L193.874 364.953C193.173 357.177 186.301 351.442 178.525 352.143Z" stroke="#274992" stroke-width="20" stroke-miterlimit="10"/>
<path d="M246.719 345.996L221.098 348.305C213.322 349.006 207.587 355.878 208.288 363.653L208.935 370.837C209.636 378.613 216.507 384.348 224.283 383.648L249.904 381.339C257.68 380.638 263.415 373.766 262.714 365.99L262.067 358.806C261.366 351.031 254.494 345.295 246.719 345.996Z" stroke="#274992" stroke-width="20" stroke-miterlimit="10"/>
<path d="M308.034 321.089C308.034 321.089 311.453 344.437 260.6 349.009" stroke="#3F3D56" stroke-width="20" stroke-miterlimit="10"/>
<path d="M306.048 299.02L307.705 317.411" stroke="#3F3D56" stroke-width="15" stroke-miterlimit="10" stroke-linecap="round"/>
<path d="M116.287 347.173L212.454 338.505L214.85 365.09L118.683 373.758C116.937 373.915 115.178 373.727 113.505 373.204C111.832 372.682 110.278 371.835 108.933 370.711C107.587 369.588 106.476 368.211 105.663 366.659C104.849 365.106 104.35 363.409 104.192 361.663C103.875 358.138 104.97 354.631 107.239 351.913C109.507 349.196 112.761 347.49 116.287 347.173Z" fill="#274992"/>
<path d="M274.45 334.479L184.251 342.597C176.88 343.26 171.443 349.774 172.106 357.145C172.769 364.516 179.283 369.953 186.654 369.29L276.853 361.172C284.224 360.508 289.661 353.995 288.998 346.624C288.335 339.253 281.821 333.816 274.45 334.479Z" fill="#3F3D56"/>
<path d="M268.096 333.402L185.149 340.878L163.029 279.331L156.64 261.563L135.779 203.512L135.705 203.311L225.935 195.18L243.788 253.711L249.232 271.564L268.096 333.402Z" fill="#28BC00"/>
<path d="M185.373 341.064L120.729 346.891L97.4973 285.239L90.8105 267.499L68.9693 209.533L135.929 203.496L156.795 261.551L163.18 279.319L185.3 340.867L185.373 341.064Z" fill="#274992"/>
<path d="M131.264 160.484L99.6501 163.33L82.3505 126.001L118.529 122.741L131.264 160.484Z" fill="#274992"/>
<path d="M179.178 156.167L131.059 160.503L118.324 122.76L167.067 118.366L179.178 156.167Z" fill="#28BC00"/>
<path d="M165.828 157.367L164.101 200.957L123.435 204.623L118.804 161.607L165.828 157.367Z" fill="#274992"/>
<path d="M255.869 149.05L247.153 193.267L163.881 200.771L165.608 157.185L255.869 149.05Z" fill="#28BC00"/>
<path d="M186.275 180.947C189.891 180.947 192.823 178.015 192.823 174.399C192.823 170.783 189.891 167.852 186.275 167.852C182.659 167.852 179.728 170.783 179.728 174.399C179.728 178.015 182.659 180.947 186.275 180.947Z" stroke="white" stroke-width="4" stroke-miterlimit="10" stroke-linecap="square"/>
<path d="M185.96 163.214L173.111 164.372L174.22 176.674L187.069 175.515L185.96 163.214Z" fill="white"/>
<path d="M202.154 163.643L226.125 161.483" stroke="white" stroke-width="4" stroke-miterlimit="10" stroke-linecap="square"/>
<path d="M200.586 168.475L224.557 166.315" stroke="white" stroke-width="4" stroke-miterlimit="10" stroke-linecap="square"/>
<path d="M127.346 128.39L151.316 126.229" stroke="white" stroke-width="4" stroke-miterlimit="10" stroke-linecap="square"/>
<path d="M130.083 132.831L154.054 130.67" stroke="white" stroke-width="4" stroke-miterlimit="10" stroke-linecap="square"/>
<path d="M198.689 173.335L213.015 172.041" stroke="white" stroke-width="4" stroke-miterlimit="10" stroke-linecap="square"/>
<path d="M157.027 224.126C160.643 224.126 163.575 221.195 163.575 217.579C163.575 213.963 160.643 211.031 157.027 211.031C153.411 211.031 150.48 213.963 150.48 217.579C150.48 221.195 153.411 224.126 157.027 224.126Z" stroke="white" stroke-width="4" stroke-miterlimit="10" stroke-linecap="square"/>
<path d="M169.375 211.244C171.768 211.027 172.046 214.109 174.443 213.893C176.84 213.676 176.561 210.594 178.958 210.377C181.354 210.16 181.633 213.246 184.03 213.029C186.427 212.812 186.152 209.73 188.548 209.513C190.945 209.297 191.224 212.382 193.621 212.166" stroke="white" stroke-width="4" stroke-miterlimit="10" stroke-linecap="square"/>
<path d="M173.332 218.601C175.729 218.388 176.007 221.47 178.404 221.253C180.801 221.036 180.522 217.954 182.919 217.737C185.315 217.52 185.594 220.606 187.987 220.39C190.38 220.173 190.109 217.091 192.505 216.874C194.902 216.657 195.181 219.739 197.581 219.522" stroke="white" stroke-width="4" stroke-miterlimit="10" stroke-linecap="square"/>
<path d="M163.029 279.331V279.335L97.4973 285.24L90.8106 267.499L156.64 261.567L163.029 279.331Z" fill="#EF977F"/>
<path d="M249.232 271.564L163.18 279.319L156.795 261.551L243.788 253.711L249.232 271.564Z" fill="#FFD097"/>
<path opacity="0.26" d="M163.029 279.335V279.331L156.64 261.567L156.795 261.551L163.18 279.319L163.029 279.335Z" fill="white"/>
<path d="M148.036 158.972L132.349 160.386L134.143 180.284L149.83 178.87L148.036 158.972Z" fill="#EF977F"/>
<path d="M249.299 305.546L214.439 308.688C199.729 310.013 188.878 323.013 190.204 337.723C191.53 352.433 204.53 363.284 219.24 361.958L254.1 358.816C268.81 357.49 279.661 344.49 278.335 329.78C277.009 315.07 264.009 304.22 249.299 305.546Z" fill="#3F3D56"/>
<path d="M254.221 308.605L219.349 311.748C208.455 312.73 200.42 322.357 201.402 333.25L201.402 333.254C202.384 344.148 212.011 352.183 222.904 351.201L257.776 348.058C268.67 347.076 276.705 337.449 275.723 326.556L275.723 326.552C274.741 315.658 265.114 307.623 254.221 308.605Z" fill="#274992"/>
<path d="M236.788 325.341C236.788 325.341 239.111 330.111 243.815 329.491" stroke="white" stroke-width="4" stroke-miterlimit="10"/>
<path d="M244.57 315.351L245.039 320.578" stroke="white" stroke-width="11" stroke-miterlimit="10" stroke-linecap="round"/>
<path d="M251.52 314.724L251.993 319.955" stroke="white" stroke-width="11" stroke-miterlimit="10" stroke-linecap="round"/>
<path d="M73.1781 342.257C73.1781 342.257 73.9524 365.833 126.223 361.12" stroke="#274992" stroke-width="20" stroke-miterlimit="10"/>
<path d="M65.9175 339.215L79.7652 337.967L81.5166 357.399C81.6825 359.24 81.1103 361.071 79.9259 362.49C78.7415 363.909 77.0419 364.8 75.2009 364.966C73.36 365.132 71.5286 364.559 70.1095 363.375C68.6904 362.191 67.8 360.491 67.6341 358.65L65.8828 339.219L65.9175 339.215Z" fill="#274992"/>
<path d="M70.6266 320.253L72.2799 338.613" stroke="#274992" stroke-width="15" stroke-miterlimit="10" stroke-linecap="round"/>
<path d="M300.783 318.048L314.631 316.8L316.382 336.231C316.548 338.072 315.976 339.904 314.792 341.323C313.607 342.742 311.907 343.632 310.067 343.798C308.226 343.964 306.394 343.392 304.975 342.208C303.556 341.023 302.666 339.324 302.5 337.483L300.748 318.051L300.783 318.048Z" fill="#3F3D56"/>
<path d="M321.721 302.167L293.143 304.742L290.909 301.796L319.487 299.221L321.721 302.167Z" fill="#3F3D56"/>
<path d="M132.062 336.952C132.062 336.952 132.871 360.52 183.724 355.924" stroke="#3F3D56" stroke-width="20" stroke-miterlimit="10"/>
<path d="M130.071 314.879L131.729 333.27" stroke="#3F3D56" stroke-width="15" stroke-miterlimit="10" stroke-linecap="round"/>
<path d="M134.102 359.639C132.261 359.805 130.429 359.233 129.01 358.048C127.591 356.864 126.701 355.164 126.535 353.323L124.784 333.892L138.651 332.642L140.404 352.097C140.563 353.931 139.99 355.755 138.809 357.168C137.628 358.581 135.936 359.47 134.102 359.639Z" fill="#3F3D56"/>
<path d="M115.211 320.779L143.789 318.205L145.462 314.902L116.884 317.481L115.211 320.779Z" fill="#3F3D56"/>
<path d="M86.2999 323.385L57.7177 325.96L55.4875 323.014L84.0658 320.439L86.2999 323.385Z" fill="#274992"/>
<path d="M76.9066 317.945L86.687 317.062" stroke="#274992" stroke-width="3" stroke-miterlimit="10"/>
<path d="M65.0665 328.399L55.383 329.27" stroke="#274992" stroke-width="3" stroke-miterlimit="10"/>
<path d="M311.837 296.549L321.613 295.67" stroke="#274992" stroke-width="3" stroke-miterlimit="10"/>
<path d="M299.996 307.003L290.313 307.878" stroke="#274992" stroke-width="3" stroke-miterlimit="10"/>
<path d="M225.935 195.18L138.88 212.138L135.779 203.512L225.935 195.18Z" fill="#274992"/>
</svg>
