<svg width="416" height="300" viewBox="0 0 416 300" fill="none" xmlns="http://www.w3.org/2000/svg">
<path d="M205.603 299.465C316.947 299.465 407.209 298.326 407.209 296.922C407.209 295.518 316.947 294.379 205.603 294.379C94.2598 294.379 3.99799 295.518 3.99799 296.922C3.99799 298.326 94.2598 299.465 205.603 299.465Z" fill="#E4EFF7"/>
<path d="M20.6752 226.062V296.563" stroke="#475056" stroke-width="5" stroke-miterlimit="10"/>
<path d="M94.5518 226.062V296.563" stroke="#475056" stroke-width="5" stroke-miterlimit="10"/>
<path d="M110.658 156.042H0.895935V265.804H110.658V156.042Z" fill="#274992"/>
<path d="M413.507 117.949H110.658V265.808H413.507V117.949Z" fill="#274992"/>
<path d="M38.5077 156.042V234.662" stroke="white" stroke-width="3" stroke-miterlimit="10" stroke-linecap="square"/>
<path d="M18.7038 180.071C22.3105 180.071 25.2343 177.147 25.2343 173.54C25.2343 169.933 22.3105 167.01 18.7038 167.01C15.0971 167.01 12.1733 169.933 12.1733 173.54C12.1733 177.147 15.0971 180.071 18.7038 180.071Z" stroke="white" stroke-width="3" stroke-miterlimit="10" stroke-linecap="square"/>
<path d="M131.947 193.279H101.49V203.389H131.947V193.279Z" fill="#274992"/>
<path d="M210.477 193.503H38.5077" stroke="white" stroke-width="3" stroke-miterlimit="10" stroke-linecap="square"/>
<path d="M319.038 226.062V296.563" stroke="#475056" stroke-width="5" stroke-miterlimit="10"/>
<path d="M392.915 226.062V296.563" stroke="#475056" stroke-width="5" stroke-miterlimit="10"/>
<path d="M338.406 125.104L304.341 120.402L299.488 142.479L335.863 155.099C348.312 159.422 360.989 149.189 359.381 136.108C357.773 123.026 356.054 110.088 355.336 108.402C353.83 104.884 348.548 90.0677 316.651 88.7249C284.753 87.382 269.345 116.692 269.345 116.692L335.279 175.634" fill="#274992"/>
<path d="M321.108 50.6856C323.363 36.5593 314.629 23.4217 301.6 21.3418C288.571 19.2619 276.181 29.0274 273.926 43.1537C271.671 57.2799 280.405 70.4176 293.434 72.4975C306.462 74.5773 318.853 64.8118 321.108 50.6856Z" fill="#274992"/>
<path d="M308.957 100.484C306.833 100.228 304.85 99.2868 303.309 97.8026C301.769 96.3185 300.754 94.3725 300.418 92.2596L295.165 59.1702C294.934 57.882 294.962 56.5605 295.248 55.2832C295.533 54.0059 296.071 52.7986 296.83 51.7319C297.588 50.6653 298.552 49.7608 299.665 49.0716C300.778 48.3824 302.017 47.9222 303.31 47.7182C304.603 47.5141 305.923 47.5702 307.194 47.8832C308.465 48.1962 309.661 48.7598 310.711 49.541C311.761 50.3221 312.645 51.3051 313.31 52.4322C313.975 53.5594 314.409 54.808 314.585 56.105L319.851 89.1657C320.054 90.4406 320.004 91.7431 319.703 92.9986C319.403 94.2542 318.858 95.4383 318.1 96.4832C317.342 97.5282 316.386 98.4136 315.285 99.0889C314.185 99.7641 312.963 100.216 311.688 100.419C310.785 100.566 309.866 100.588 308.957 100.484Z" fill="#FF9B21"/>
<path d="M302.137 84.1943L300.129 84.5005C297.792 84.8562 295.406 84.6928 293.14 84.0219C290.874 83.351 288.784 82.189 287.018 80.6187C285.252 79.0483 283.854 77.1081 282.923 74.9361C281.992 72.7641 281.551 70.4136 281.631 68.0517L282.039 56.3498C282.167 52.5709 283.624 48.9582 286.152 46.1468C288.681 43.3355 292.119 41.5055 295.863 40.9786C297.954 40.6829 300.083 40.802 302.128 41.3292C304.173 41.8563 306.094 42.7812 307.782 44.0509C309.469 45.3207 310.89 46.9104 311.963 48.7293C313.036 50.5483 313.74 52.5608 314.035 54.6519L315.643 66.0476C316.235 70.2414 315.149 74.4995 312.62 77.8971C310.091 81.2948 306.324 83.5576 302.137 84.1943Z" fill="#FF9B21"/>
<path d="M289.688 58.6151L285.721 68.4884L289.737 69.0476" stroke="#25282D" stroke-width="3" stroke-miterlimit="10"/>
<path d="M294.304 63.1742C295.391 63.1742 296.271 62.2934 296.271 61.2069C296.271 60.1204 295.391 59.2396 294.304 59.2396C293.218 59.2396 292.337 60.1204 292.337 61.2069C292.337 62.2934 293.218 63.1742 294.304 63.1742Z" fill="#274992"/>
<path d="M284.913 62.0559C285.999 62.0559 286.88 61.1751 286.88 60.0886C286.88 59.002 285.999 58.1212 284.913 58.1212C283.826 58.1212 282.945 59.002 282.945 60.0886C282.945 61.1751 283.826 62.0559 284.913 62.0559Z" fill="#274992"/>
<path d="M297.063 71.5905C297.063 71.5905 294.651 71.4354 293.39 73.4027" stroke="#25282D" stroke-width="3" stroke-miterlimit="10"/>
<path d="M358.144 83.676C358.144 83.676 360.887 105.178 342.85 104.961C312.994 104.598 308.202 84.9862 310.271 73.6557C311.088 69.1415 313.883 65.7986 316.99 62.5987C300.888 59.0681 301.986 48.5295 301.986 48.5295C301.986 48.5295 272.047 62.7171 273.786 43.8153C275.525 24.9135 293.214 17.4401 305.373 18.485C333.634 20.9095 334.467 38.9133 342.05 41.5051C385.038 56.2151 358.144 83.676 358.144 83.676Z" fill="#274992"/>
<path d="M320.745 62.0875C322.725 58.6105 321.511 54.1868 318.034 52.2068C314.557 50.2268 310.134 51.4403 308.154 54.9173L304.896 60.6383C302.916 64.1152 304.129 68.5389 307.606 70.5189C311.083 72.4989 315.507 71.2854 317.487 67.8085L320.745 62.0875Z" fill="#FF9B21"/>
<path d="M315.847 56.5376L311.222 64.6558" stroke="#25282D" stroke-width="3" stroke-miterlimit="10"/>
<path d="M305.781 119.361L338.744 124.292" stroke="white" stroke-width="3" stroke-miterlimit="10" stroke-linecap="square"/>
<path d="M329.708 122.937L327.022 111.137" stroke="white" stroke-width="3" stroke-miterlimit="10" stroke-linecap="square"/>
<path d="M280.259 122.394C280.259 122.394 294.578 110.578 306.569 125.459C318.561 140.34 297.59 137.769 297.59 137.769" fill="#FF9B21"/>
<path d="M307.222 139.079H237.395L196.579 110.202H266.407L307.222 139.079Z" fill="#274992"/>
<path d="M166.367 296.922H211.697L217.411 296.861L213.04 279.6L192.534 281.155L166.367 296.922Z" fill="#274992"/>
<path d="M129.18 212.899L170.355 238.47L175.583 241.633L185.698 212.597L163.902 210.086L129.18 212.899Z" fill="#274992"/>
<path d="M243.272 151.389L321.108 195.442H221.407V281H179.069V177.083C179.069 162.891 191.314 151.389 206.391 151.389H243.272Z" fill="#28BC00"/>
<path d="M241.782 161.471L282.855 191.858C297.81 202.919 318.61 197.981 327.54 181.213L339.41 159.308L255.799 114.541C243.064 107.729 227.505 111.39 218.766 123.259L157.437 206.56L189.273 232.768L241.782 161.471Z" fill="#28BC00"/>
<path d="M413.507 156.042H303.745V265.804H413.507V156.042Z" fill="#274992"/>
<path d="M228.207 151.389L282.855 191.858C282.855 191.858 289.439 197.821 302.447 197.821" stroke="white" stroke-width="3" stroke-miterlimit="10"/>
<path d="M196.685 153.246C196.685 153.246 201.395 151.385 206.391 151.385H228.207" stroke="white" stroke-width="3" stroke-miterlimit="10"/>
<path d="M179.649 176.393V225.862" stroke="white" stroke-width="3" stroke-miterlimit="10"/>
<path d="M262.86 59.3212H200.126C198.167 59.3212 196.579 60.9092 196.579 62.8681V107.59C196.579 109.549 198.167 111.137 200.126 111.137H262.86C264.819 111.137 266.407 109.549 266.407 107.59V62.8681C266.407 60.9092 264.819 59.3212 262.86 59.3212Z" fill="#274992"/>
<path d="M231.493 46.2398C233.56 46.2398 235.236 44.564 235.236 42.4969C235.236 40.4299 233.56 38.7542 231.493 38.7542C229.426 38.7542 227.75 40.4299 227.75 42.4969C227.75 44.564 229.426 46.2398 231.493 46.2398Z" fill="#FF9B21"/>
<path d="M222.366 35.3134C223.564 34.1151 224.986 33.1645 226.552 32.5159C228.117 31.8673 229.794 31.5335 231.489 31.5335C233.183 31.5335 234.861 31.8673 236.426 32.5159C237.991 33.1645 239.413 34.1151 240.611 35.3134" stroke="#FF9B21" stroke-width="8" stroke-miterlimit="10"/>
<path d="M215.505 28.5625C219.746 24.3251 225.496 21.9448 231.491 21.9448C237.486 21.9448 243.235 24.3251 247.476 28.5625" stroke="#FF9B21" stroke-width="8" stroke-miterlimit="10"/>
<path d="M208.938 21.8197C211.9 18.8579 215.416 16.5085 219.285 14.9056C223.155 13.3026 227.302 12.4776 231.491 12.4776C235.679 12.4776 239.827 13.3026 243.696 14.9056C247.566 16.5085 251.082 18.8579 254.043 21.8197" stroke="#FF9B21" stroke-width="8" stroke-miterlimit="10"/>
<path d="M246.142 7.49335L217.024 42.8275" stroke="white" stroke-width="23" stroke-miterlimit="10"/>
<path d="M247.366 6.26889L218.248 41.6031" stroke="#FF9B21" stroke-width="8" stroke-miterlimit="10"/>
<path d="M340.418 157.267V235.886" stroke="white" stroke-width="3" stroke-miterlimit="10" stroke-linecap="square"/>
<path d="M322.263 180.071C325.87 180.071 328.793 177.147 328.793 173.54C328.793 169.933 325.87 167.01 322.263 167.01C318.656 167.01 315.732 169.933 315.732 173.54C315.732 177.147 318.656 180.071 322.263 180.071Z" stroke="white" stroke-width="3" stroke-miterlimit="10" stroke-linecap="square"/>
<path d="M328.793 156.108H413.511" stroke="white" stroke-width="3" stroke-miterlimit="10" stroke-linecap="square"/>
<path d="M231.493 90.7412C235.147 90.7412 238.109 87.779 238.109 84.125C238.109 80.4709 235.147 77.5087 231.493 77.5087C227.839 77.5087 224.877 80.4709 224.877 84.125C224.877 87.779 227.839 90.7412 231.493 90.7412Z" fill="white"/>
<path d="M237.289 71.717C237.289 71.717 236.909 74.2925 235.109 75.5251C233.309 76.7577 230.77 76.1945 230.77 76.1945C230.77 76.1945 231.15 73.619 232.95 72.3823C234.75 71.1456 237.289 71.717 237.289 71.717Z" fill="white"/>
</svg>
