<svg width="638" height="414" viewBox="0 0 638 414" fill="none" xmlns="http://www.w3.org/2000/svg">
<path d="M299.113 381.247C309.108 381.247 317.21 373.145 317.21 363.151C317.21 353.157 309.108 345.055 299.113 345.055C289.119 345.055 281.017 353.157 281.017 363.151C281.017 373.145 289.119 381.247 299.113 381.247Z" fill="#E9EEF2"/>
<path d="M118.003 291.01L148.51 321.518" stroke="#F2F6F9" stroke-width="21" stroke-miterlimit="10"/>
<path d="M50.0006 308.217C50.0955 312.023 48.6554 315.961 45.6802 320.03L51.045 325.395L45.4349 331.005L40.2639 325.834C37.8633 327.942 35.2203 329.756 32.3908 331.239C30.0047 332.546 27.4321 333.481 24.7629 334.008L20.7432 323.912C23.3664 323.391 25.899 322.489 28.2603 321.233C30.7009 319.987 32.9348 318.373 34.8833 316.446C38.4361 312.893 39.2946 310.199 37.4589 308.363C36.4909 307.395 35.267 307.184 33.7874 307.73C32.3077 308.276 30.1871 309.413 27.4255 311.141C24.8882 312.796 22.236 314.269 19.4891 315.548C17.2087 316.573 14.7041 316.998 12.2133 316.782C9.64429 316.584 7.18343 315.308 4.83071 312.953C3.48876 311.647 2.42394 310.084 1.69996 308.357C0.975983 306.631 0.607711 304.776 0.617185 302.903C0.567071 298.992 2.14038 294.985 5.33713 290.884L0.0197754 285.567L5.6299 279.956L10.8483 285.179C12.7373 283.598 14.7767 282.207 16.9372 281.025C18.8995 279.933 20.9937 279.098 23.1685 278.54L27.4216 288.494C22.5684 289.876 18.6754 292.03 15.7424 294.955C13.8961 296.801 12.841 298.425 12.5773 299.825C12.3135 301.226 12.6261 302.38 13.5149 303.287C14.417 304.189 15.5933 304.367 17.044 303.821C18.4947 303.275 20.5665 302.137 23.2595 300.407C25.7999 298.735 28.4606 297.254 31.2197 295.976C33.4942 294.967 35.9826 294.536 38.4638 294.722C41.0302 294.89 43.491 296.151 45.8464 298.504C47.1449 299.769 48.1804 301.279 48.8933 302.946C49.6062 304.612 49.9825 306.404 50.0006 308.217Z" fill="#F2F6F9"/>
<path d="M132.309 217.731C126.96 220.545 120.342 221.264 112.456 219.887L108.59 231.301L96.658 227.258L100.385 216.259C95.6961 214.329 91.2535 211.848 87.1508 208.868C83.1945 205.967 80.1006 202.991 77.8692 199.939L89.4178 187.108C92.0034 190.475 95.0693 193.444 98.5175 195.919C102.006 198.52 105.877 200.566 109.991 201.984C117.55 204.543 121.991 203.869 123.312 199.963C124.008 197.905 123.448 196.015 121.631 194.293C119.813 192.571 116.704 190.353 112.301 187.639C108.158 185.188 104.191 182.449 100.432 179.441C97.3705 176.913 95.0051 173.644 93.5602 169.946C92.0356 166.142 92.1227 161.74 93.8213 156.739C94.7295 153.912 96.1982 151.298 98.1396 149.051C100.081 146.804 102.455 144.972 105.121 143.664C110.66 140.839 117.47 140.261 125.551 141.931L129.381 130.619L141.313 134.663L137.555 145.764C141.135 147.337 144.551 149.258 147.754 151.501C150.703 153.537 153.376 155.945 155.707 158.666L144.522 171.722C139.147 165.777 133.344 161.749 127.114 159.639C123.2 158.321 120.146 157.954 117.951 158.539C115.757 159.125 114.334 160.382 113.682 162.31C113.033 164.227 113.607 166.026 115.403 167.706C117.199 169.387 120.277 171.536 124.637 174.155C129.525 177.12 133.488 179.855 136.526 182.361C139.565 184.891 141.933 188.132 143.418 191.797C144.98 195.574 144.915 199.964 143.224 204.967C142.338 207.71 140.917 210.25 139.044 212.441C137.17 214.632 134.881 216.43 132.309 217.731Z" fill="#F2F6F9"/>
<path d="M62.4235 90.9174C59.0132 94.5071 54.069 96.8031 47.5911 97.8054V107.673H37.2769V98.1773C33.1314 97.9097 29.0327 97.1486 25.0675 95.9103C21.2246 94.6997 18.0423 93.2041 15.5208 91.4238L21.1111 78.4469C24.0014 80.3781 27.1592 81.8751 30.4838 82.8899C33.8727 83.985 37.4106 84.5496 40.9721 84.5634C47.508 84.5634 50.776 82.8741 50.776 79.4953C50.776 77.7176 49.8436 76.3988 47.9788 75.539C46.1141 74.6791 43.1191 73.7757 38.9939 72.8289C35.1396 72.0175 31.3478 70.9334 27.6471 69.5846C24.6091 68.4354 21.9153 66.5287 19.8214 64.0457C17.6401 61.4978 16.5508 58.0611 16.5534 53.7354C16.5164 51.3042 16.9691 48.8904 17.8847 46.6378C18.8002 44.3852 20.1599 42.34 21.8826 40.624C25.4407 36.9789 30.5721 34.737 37.2769 33.8982V24.1062H47.5911V33.7202C50.7807 34.0005 53.9348 34.5955 57.0073 35.4966C59.8243 36.3031 62.5262 37.4678 65.0466 38.9624L59.8044 52.0184C54.0703 48.819 48.5103 47.2193 43.1244 47.2193C39.743 47.2193 37.2769 47.7376 35.726 48.7742C34.1751 49.8107 33.4023 51.1585 33.4075 52.8176C33.4075 54.4792 34.3241 55.7242 36.1572 56.5524C37.9903 57.3806 40.9431 58.2391 45.0155 59.128C48.8862 59.9309 52.6931 61.0152 56.4059 62.3722C59.4283 63.5372 62.1164 65.4303 64.2316 67.8834C66.434 70.4049 67.5365 73.8272 67.5391 78.1502C67.5717 80.5106 67.1365 82.8542 66.2585 85.0455C65.3804 87.2368 64.077 89.2325 62.4235 90.9174Z" fill="#F2F6F9"/>
<path d="M422.524 272.265C418.291 276.718 412.155 279.568 404.115 280.815V293.08H391.304V281.27C386.16 280.938 381.073 279.994 376.152 278.457C371.385 276.949 367.429 275.09 364.282 272.883L371.222 256.772C374.807 259.178 378.726 261.045 382.854 262.311C387.06 263.676 391.452 264.383 395.874 264.408C403.99 264.408 408.047 262.311 408.044 258.118C408.044 255.91 406.887 254.273 404.574 253.208C402.261 252.142 398.543 251.02 393.421 249.841C388.636 248.833 383.928 247.487 379.333 245.813C375.559 244.382 372.215 242.007 369.62 238.917C366.913 235.752 365.562 231.486 365.564 226.118C365.518 223.1 366.08 220.104 367.217 217.307C368.353 214.511 370.041 211.972 372.179 209.842C376.595 205.321 382.963 202.552 391.285 201.534V189.344H404.095V201.261C408.054 201.61 411.969 202.35 415.783 203.468C419.279 204.468 422.633 205.913 425.76 207.769L419.252 223.99C412.131 220.018 405.228 218.032 398.545 218.032C394.348 218.032 391.289 218.675 389.366 219.962C387.443 221.249 386.482 222.923 386.482 224.983C386.482 227.046 387.621 228.591 389.9 229.62C392.179 230.648 395.842 231.714 400.891 232.817C406.585 234.072 411.3 235.415 415.035 236.844C418.793 238.288 422.136 240.638 424.767 243.685C427.505 246.815 428.874 251.065 428.874 256.432C428.912 259.36 428.371 262.266 427.281 264.983C426.191 267.701 424.575 270.176 422.524 272.265Z" fill="#F2F6F9"/>
<path d="M557.084 306.433C551.638 312.161 543.739 315.829 533.39 317.435V333.197H516.923V318.005C510.3 317.577 503.753 316.36 497.418 314.381C491.281 312.442 486.198 310.053 482.17 307.212L491.1 286.481C495.716 289.566 500.76 291.958 506.071 293.578C511.485 295.336 517.138 296.246 522.83 296.277C533.267 296.277 538.487 293.578 538.489 288.182C538.489 285.341 537 283.231 534.023 281.852C531.045 280.472 526.26 279.022 519.669 277.5C512.437 275.893 506.393 274.166 501.537 272.317C496.679 270.481 492.372 267.435 489.023 263.466C485.541 259.399 483.802 253.909 483.804 246.996C483.804 238.854 486.642 231.872 492.319 226.051C497.995 220.23 506.191 216.656 516.907 215.329V199.714H533.39V215.052C538.482 215.503 543.518 216.455 548.424 217.893C552.925 219.179 557.241 221.041 561.266 223.432L552.887 244.306C543.726 239.194 534.844 236.637 526.24 236.634C520.836 236.634 516.898 237.464 514.427 239.123C511.955 240.782 510.718 242.935 510.716 245.584C510.716 248.234 512.182 250.222 515.115 251.546C518.048 252.87 522.764 254.243 529.263 255.664C536.585 257.276 542.651 259.004 547.462 260.847C552.289 262.709 556.582 265.733 559.96 269.65C563.487 273.678 565.25 279.146 565.25 286.053C565.255 293.911 562.533 300.704 557.084 306.433Z" fill="#F2F6F9"/>
<path d="M562.026 109.105C555.714 109.263 549.185 106.876 542.438 101.944L533.54 110.842L524.234 101.536L532.808 92.9469C529.313 88.9652 526.304 84.5825 523.843 79.8909C521.469 75.3358 519.95 71.1157 519.285 67.2305L536.024 60.568C536.887 64.9161 538.384 69.1137 540.467 73.0266C542.532 77.074 545.209 80.7785 548.404 84.0095C554.296 89.8992 558.765 91.3222 561.812 88.2784C563.413 86.6748 563.761 84.6465 562.856 82.1935C561.952 79.7406 560.066 76.2247 557.199 71.6459C554.458 67.4496 552.016 63.0657 549.891 58.5265C548.195 54.745 547.491 50.5931 547.846 46.4636C548.178 42.1986 550.296 38.117 554.2 34.2186C556.357 31.994 558.94 30.2265 561.795 29.0213C564.65 27.8162 567.718 27.1981 570.817 27.204C577.31 27.1222 583.954 29.7308 590.749 35.0297L599.564 26.2109L608.869 35.5163L600.212 44.1728C602.833 47.3025 605.139 50.6831 607.097 54.2655C608.913 57.5309 610.298 61.0178 611.219 64.6391L594.709 71.6933C592.425 63.6382 588.854 57.1761 583.995 52.3071C580.954 49.2581 578.268 47.5067 575.936 47.0531C573.605 46.5994 571.691 47.1177 570.195 48.6079C568.7 50.1034 568.405 52.0526 569.309 54.4554C570.214 56.8583 572.101 60.295 574.971 64.7657C578.194 69.8114 580.643 74.2109 582.318 77.9642C583.992 81.7393 584.708 85.8693 584.403 89.9876C584.121 94.2473 582.03 98.3276 578.132 102.229C576.033 104.38 573.53 106.095 570.766 107.276C568.001 108.456 565.031 109.077 562.026 109.105Z" fill="#F2F6F9"/>
<path d="M297.701 302.444C295.09 305.209 291.287 306.974 286.295 307.742V315.33H278.354V308.015C275.167 307.81 272.015 307.226 268.966 306.274C266.357 305.505 263.882 304.34 261.627 302.82L265.923 292.842C268.147 294.327 270.575 295.478 273.132 296.261C275.738 297.106 278.459 297.544 281.199 297.558C286.21 297.558 288.716 296.259 288.716 293.661C288.716 292.292 288 291.278 286.568 290.619C285.135 289.959 282.833 289.264 279.66 288.534C276.695 287.91 273.778 287.075 270.932 286.037C268.595 285.152 266.523 283.682 264.914 281.768C263.237 279.809 262.399 277.171 262.402 273.856C262.373 271.986 262.722 270.13 263.426 268.398C264.13 266.666 265.176 265.094 266.501 263.775C269.249 260.958 273.2 259.23 278.354 258.592V251.075H286.291V258.458C288.743 258.676 291.168 259.133 293.531 259.822C295.699 260.443 297.778 261.339 299.719 262.489L295.683 272.538C291.276 270.077 287 268.847 282.856 268.847C280.257 268.847 278.358 269.243 277.171 270.034C275.984 270.825 275.383 271.87 275.383 273.148C275.383 274.425 276.091 275.379 277.5 276.016C278.908 276.653 281.179 277.318 284.312 277.994C287.289 278.611 290.217 279.445 293.072 280.491C295.395 281.387 297.462 282.842 299.089 284.728C300.788 286.666 301.636 289.304 301.633 292.641C301.657 294.453 301.321 296.253 300.646 297.935C299.972 299.618 298.97 301.15 297.701 302.444Z" fill="#F2F6F9"/>
<path d="M367.527 101.611C367.669 107.427 365.468 113.445 360.923 119.664L369.125 127.866L360.548 136.443L352.635 128.531C348.966 131.752 344.927 134.525 340.604 136.791C336.402 138.975 332.514 140.376 328.94 140.993L322.796 125.563C326.8 124.765 330.666 123.384 334.269 121.464C338.012 119.57 341.438 117.106 344.425 114.161C349.859 108.728 351.178 104.608 348.382 101.801C346.905 100.322 345.035 99.9999 342.772 100.836C340.509 101.672 337.268 103.41 333.051 106.05C329.171 108.575 325.117 110.823 320.921 112.776C317.435 114.342 313.606 114.99 309.799 114.66C305.872 114.354 302.111 112.403 298.516 108.808C296.463 106.818 294.833 104.435 293.722 101.801C292.61 99.1668 292.041 96.336 292.047 93.4771C291.973 87.4951 294.377 81.372 299.26 75.1077L291.098 66.9932L299.675 58.4158L307.655 66.3958C310.54 63.985 313.655 61.8647 316.956 60.0656C319.968 58.3919 323.184 57.114 326.523 56.2635L333.023 71.4837C325.598 73.5938 319.647 76.8907 315.168 81.3746C312.356 84.1836 310.738 86.6629 310.314 88.8126C309.889 90.9622 310.366 92.7254 311.746 94.1022C313.128 95.4843 314.925 95.7573 317.138 94.9212C319.351 94.0851 322.516 92.3456 326.634 89.7028C330.518 87.151 334.584 84.8872 338.799 82.9295C342.278 81.388 346.083 80.7276 349.877 81.0067C353.805 81.2704 357.567 83.1972 361.165 86.7869C363.148 88.7179 364.731 91.0214 365.823 93.5652C366.915 96.1091 367.494 98.8434 367.527 101.611Z" fill="#F2F6F9"/>
<path d="M508.334 131.901L477.363 162.872" stroke="#F2F6F9" stroke-width="21" stroke-miterlimit="10"/>
<path d="M630 272.36L599.033 303.331" stroke="#F2F6F9" stroke-width="21" stroke-miterlimit="10"/>
<path d="M279.953 18.5594L248.986 49.5259" stroke="#F2F6F9" stroke-width="21" stroke-miterlimit="10"/>
<path d="M111.083 61.3831L146.029 96.3296" stroke="#F2F6F9" stroke-width="21" stroke-miterlimit="10"/>
<path d="M483.808 48.9521L453.993 19.1329" stroke="#F2F6F9" stroke-width="21" stroke-miterlimit="10"/>
<path d="M398.477 327.449L429.06 358.031" stroke="#F2F6F9" stroke-width="21" stroke-miterlimit="10"/>
<path d="M18.0964 216.611C28.0908 216.611 36.1928 208.509 36.1928 198.515C36.1928 188.52 28.0908 180.418 18.0964 180.418C8.10205 180.418 0 188.52 0 198.515C0 208.509 8.10205 216.611 18.0964 216.611Z" fill="#E9EEF2"/>
<path d="M173.384 36.1928C183.378 36.1928 191.48 28.0908 191.48 18.0964C191.48 8.10205 183.378 0 173.384 0C163.389 0 155.287 8.10205 155.287 18.0964C155.287 28.0908 163.389 36.1928 173.384 36.1928Z" fill="#E9EEF2"/>
<path d="M440.47 100.808C450.465 100.808 458.567 92.706 458.567 82.7117C458.567 72.7173 450.465 64.6152 440.47 64.6152C430.476 64.6152 422.374 72.7173 422.374 82.7117C422.374 92.706 430.476 100.808 440.47 100.808Z" fill="#E9EEF2"/>
<path d="M603.805 198.511C613.799 198.511 621.901 190.409 621.901 180.414C621.901 170.42 613.799 162.318 603.805 162.318C593.811 162.318 585.708 170.42 585.708 180.414C585.708 190.409 593.811 198.511 603.805 198.511Z" fill="#E9EEF2"/>
<path d="M376.504 259.636H407.751L384.492 186.392H353.244L376.504 259.636Z" fill="#274992"/>
<path d="M355.032 259.633H395.284V254.845H355.032V259.633Z" fill="#274992"/>
<path d="M303.556 413.405C433.599 413.405 539.019 412.018 539.019 410.307C539.019 408.596 433.599 407.209 303.556 407.209C173.513 407.209 68.093 408.596 68.093 410.307C68.093 412.018 173.513 413.405 303.556 413.405Z" fill="#E4EFF7"/>
<path d="M281.389 260.392L248.025 410.307" stroke="#475056" stroke-width="5" stroke-miterlimit="10"/>
<path d="M317.53 260.392L284.162 410.307" stroke="#475056" stroke-width="5" stroke-miterlimit="10"/>
<path d="M488.374 260.242L521.774 410.307" stroke="#475056" stroke-width="5" stroke-miterlimit="10"/>
<path d="M452.201 260.242L485.6 410.307" stroke="#475056" stroke-width="5" stroke-miterlimit="10"/>
<path d="M251.055 260.297H511.246" stroke="#475056" stroke-width="5" stroke-miterlimit="10"/>
<path d="M362.506 226.767H349.683V186.392L362.506 226.767Z" fill="#24272D"/>
<path d="M375.174 226.767C375.275 227.112 375.394 227.452 375.53 227.784C377.315 232.104 381.651 234.407 385.22 232.927C387.593 231.942 389.03 229.537 389.2 226.759C389.28 225.281 389.024 223.804 388.452 222.439C386.668 218.118 382.327 215.816 378.759 217.296C375.471 218.657 373.983 222.751 375.174 226.767Z" fill="white"/>
<path d="M371.614 226.767H385.639C385.719 225.289 385.464 223.812 384.891 222.447C383.107 218.126 378.767 215.824 375.198 217.303C371.91 218.656 370.423 222.751 371.614 226.767Z" fill="#24272D"/>
<path d="M448.379 141.673V222.019C448.379 223.278 447.879 224.486 446.988 225.376C446.098 226.267 444.891 226.767 443.631 226.767H440.466C441.725 226.767 442.933 226.267 443.823 225.376C444.714 224.486 445.214 223.278 445.214 222.019V141.673C445.214 140.414 444.714 139.207 443.823 138.316C442.933 137.426 441.725 136.926 440.466 136.926H443.631C444.891 136.926 446.098 137.426 446.988 138.316C447.879 139.207 448.379 140.414 448.379 141.673Z" fill="#24272D"/>
<path d="M440.47 136.93H295.849C293.227 136.93 291.102 139.055 291.102 141.677V222.023C291.102 224.645 293.227 226.771 295.849 226.771H440.47C443.092 226.771 445.218 224.645 445.218 222.023V141.677C445.218 139.055 443.092 136.93 440.47 136.93Z" fill="#274992"/>
<path d="M439.663 141.563H301.966V220.678H439.663V141.563Z" fill="white"/>
<path d="M88.227 377.37L67.5431 398.39L86.7631 409.915H146.03L114.477 393.124L88.227 377.37Z" fill="black"/>
<path d="M204.857 383.526L191.623 409.915H267.371L235.819 393.124L204.857 383.526Z" fill="black"/>
<path d="M122.944 397.801L194.127 326.657C200.53 320.252 204.732 311.978 206.127 303.03L212.212 263.985L238.854 302.824L197.059 382.949L242.454 396.4L285.404 327.203C289.333 320.877 291.307 313.532 291.081 306.088C290.854 298.644 288.436 291.433 284.13 285.357L242.589 225.394L175.093 208.671L169.835 216.92C164.593 225.144 161.527 234.567 160.925 244.302L157.918 292.743L77.3193 375.685L122.944 397.801Z" fill="#24272D"/>
<path d="M207.472 244.658C207.472 244.658 202.602 245.576 195.128 247.297C195.128 247.297 192.268 252.713 190.911 252.836C186.65 253.16 174.266 248.586 180.671 235.704C187.077 222.823 207.472 224.555 207.472 224.555" fill="#FF9B21"/>
<path d="M159.96 301.57L156.53 292.316L164.961 291.01" stroke="white" stroke-width="3" stroke-miterlimit="10" stroke-linecap="square"/>
<path d="M244.994 309.546L237.133 302.504L248.025 297.06" stroke="white" stroke-width="3" stroke-miterlimit="10" stroke-linecap="square"/>
<path d="M213.41 252.669L210.886 280.245" stroke="white" stroke-width="3" stroke-miterlimit="10" stroke-linecap="square"/>
<path d="M223.119 135.707C197.913 130.16 175.093 208.671 175.093 208.671L242.589 225.406C242.589 225.406 258.145 143.414 223.119 135.707Z" fill="#274992"/>
<path d="M221.22 135.45C221.22 135.45 206.499 134.156 199.5 138.132C195.52 140.395 179.481 157.641 166.373 172.114C158.46 180.849 163.208 195.061 174.682 197.039L242.442 208.67L244.598 184.442L204.164 174.199L212.283 161.736" fill="#274992"/>
<path d="M227.004 136.946C227.004 136.946 253.793 144.716 258.177 151.774C262.56 158.832 259.447 208.671 259.447 208.671L208.995 248.828L189.518 225.406L232.5 190.242" fill="#274992"/>
<path d="M244.967 129.388C257.132 127.446 265.287 115.177 263.181 101.985C261.075 88.7923 249.506 79.6721 237.341 81.6142C225.175 83.5562 217.021 95.825 219.127 109.017C221.233 122.21 232.802 131.33 244.967 129.388Z" fill="#24272D"/>
<path d="M230.482 155.521C232.466 155.282 234.317 154.403 235.756 153.017C237.195 151.631 238.144 149.814 238.458 147.841L243.364 116.942C243.705 114.556 243.094 112.131 241.663 110.19C240.232 108.25 238.095 106.951 235.714 106.573C233.333 106.195 230.899 106.768 228.937 108.169C226.975 109.571 225.643 111.687 225.228 114.062L220.322 144.961C220.101 146.363 220.207 147.798 220.633 149.152C221.059 150.506 221.793 151.743 222.777 152.766C223.762 153.789 224.97 154.57 226.306 155.048C227.643 155.526 229.072 155.688 230.482 155.521Z" fill="#FF9B21"/>
<path d="M236.832 140.309L238.711 140.597C240.893 140.927 243.12 140.773 245.235 140.145C247.35 139.518 249.301 138.432 250.95 136.966C252.599 135.5 253.904 133.689 254.774 131.661C255.645 129.634 256.058 127.44 255.985 125.235L255.589 114.307C255.465 110.779 254.104 107.407 251.744 104.782C249.383 102.157 246.175 100.446 242.68 99.9496C238.739 99.4045 234.743 100.443 231.567 102.839C228.391 105.234 226.294 108.79 225.734 112.729L224.235 123.367C223.688 127.28 224.702 131.251 227.06 134.421C229.417 137.591 232.928 139.706 236.832 140.309Z" fill="#FF9B21"/>
<path d="M247.673 116.42L251.38 125.642L247.629 126.16" stroke="white" stroke-width="3" stroke-miterlimit="10"/>
<path d="M244.274 121.65C245.172 121.65 245.9 120.922 245.9 120.024C245.9 119.126 245.172 118.398 244.274 118.398C243.376 118.398 242.648 119.126 242.648 120.024C242.648 120.922 243.376 121.65 244.274 121.65Z" fill="white"/>
<path d="M252.594 121.65C253.492 121.65 254.22 120.922 254.22 120.024C254.22 119.126 253.492 118.398 252.594 118.398C251.696 118.398 250.968 119.126 250.968 120.024C250.968 120.922 251.696 121.65 252.594 121.65Z" fill="white"/>
<path d="M241.56 128.554C241.56 128.554 245.773 128.289 247.938 131.719" stroke="white" stroke-width="3" stroke-miterlimit="10"/>
<path d="M184.533 139.826C184.533 139.826 181.973 159.904 198.815 159.703C226.696 159.366 231.17 141.048 229.24 130.469C228.448 126.256 225.865 123.13 222.965 120.143C237.999 116.847 236.974 107.004 236.974 107.004C236.974 107.004 264.934 120.246 263.32 102.604C261.706 84.9629 245.176 77.972 233.821 78.9453C207.428 81.2123 206.649 98.0229 199.571 100.444C159.418 114.181 184.533 139.826 184.533 139.826Z" fill="#24272D"/>
<path d="M222.516 125.004C224.365 128.251 228.496 129.385 231.743 127.536C234.99 125.687 236.123 121.556 234.274 118.309L231.232 112.966C229.383 109.719 225.252 108.586 222.005 110.435C218.758 112.284 217.625 116.415 219.474 119.662L222.516 125.004Z" fill="#FF9B21"/>
<path d="M224.033 114.481L228.354 122.062" stroke="white" stroke-width="3" stroke-miterlimit="10"/>
<path d="M310.951 248.191C348.879 248.191 379.625 217.444 379.625 179.516C379.625 141.588 348.879 110.842 310.951 110.842C273.023 110.842 242.276 141.588 242.276 179.516C242.276 217.444 273.023 248.191 310.951 248.191Z" fill="#274992"/>
<path d="M323.215 248.191C361.143 248.191 391.89 217.444 391.89 179.516C391.89 141.588 361.143 110.842 323.215 110.842C285.287 110.842 254.541 141.588 254.541 179.516C254.541 217.444 285.287 248.191 323.215 248.191Z" fill="#28BC00"/>
<path d="M323.215 231.19C351.754 231.19 374.889 208.055 374.889 179.516C374.889 150.977 351.754 127.842 323.215 127.842C294.677 127.842 271.541 150.977 271.541 179.516C271.541 208.055 294.677 231.19 323.215 231.19Z" fill="#274992"/>
<path d="M235.329 192.252L245.912 188.295C245.912 188.295 258.252 197.035 261.342 191.065C261.342 191.065 263.32 192.386 264.277 191.397C265.235 190.408 262.639 184.192 262.639 184.192C262.639 184.192 263.909 178.934 260.432 175.362C256.954 171.789 247.494 165.15 245.912 165.95C244.329 166.749 235.337 176.446 235.337 176.446L235.329 192.252Z" fill="#FF9B21"/>
<path d="M179.829 198.119L233.101 199.294" stroke="white" stroke-width="3" stroke-miterlimit="10"/>
<path d="M230.261 171.888L193.174 170.306" stroke="white" stroke-width="3" stroke-miterlimit="10"/>
<path d="M208.022 162.286L199.381 170.492" stroke="white" stroke-width="3" stroke-miterlimit="10"/>
<path d="M201.862 215.309L221.742 199.041" stroke="white" stroke-width="3" stroke-miterlimit="10"/>
<path d="M339.959 198.756C337.334 201.517 333.532 203.283 328.553 204.053V211.638H320.616V204.33C317.428 204.123 314.277 203.537 311.228 202.586C308.619 201.817 306.144 200.652 303.889 199.132L308.185 189.154C310.409 190.638 312.837 191.79 315.394 192.572C318 193.418 320.721 193.855 323.461 193.87C328.472 193.87 330.978 192.571 330.978 189.973C330.978 188.606 330.262 187.592 328.829 186.93C327.397 186.268 325.095 185.573 321.922 184.845C318.956 184.222 316.038 183.389 313.19 182.353C310.855 181.463 308.785 179.992 307.176 178.08C305.499 176.123 304.66 173.485 304.66 170.167C304.632 168.297 304.981 166.44 305.685 164.707C306.39 162.975 307.437 161.402 308.763 160.082C311.493 157.281 315.437 155.567 320.596 154.939V147.422H328.533V154.805C330.985 155.023 333.41 155.48 335.773 156.17C337.94 156.791 340.018 157.687 341.957 158.836L337.921 168.885C333.514 166.424 329.238 165.194 325.095 165.194C322.491 165.194 320.595 165.59 319.405 166.381C318.216 167.172 317.621 168.209 317.621 169.491C317.621 170.765 318.327 171.721 319.738 172.359C321.149 172.997 323.419 173.657 326.547 174.337C329.53 174.95 332.464 175.781 335.326 176.822C337.649 177.718 339.716 179.174 341.343 181.059C343.039 182.998 343.887 185.635 343.887 188.972C343.909 190.781 343.573 192.577 342.899 194.256C342.225 195.935 341.226 197.464 339.959 198.756Z" fill="#FF9B21"/>
</svg>
