<svg width="193" height="76" viewBox="0 0 193 76" fill="none" xmlns="http://www.w3.org/2000/svg">
<path d="M188.882 49.3932C186.787 61.2686 175.306 65.6788 169.828 66.3994C145.61 62.6 117.635 75.4729 96.3753 72.3303C75.1152 69.1877 58.2631 52.2437 48.1348 46.6942C38.0066 41.1447 -13.3078 36.494 3.95005 18.0843C21.2079 -0.325286 48.6665 17.1085 90.5512 21.2437C132.436 25.3789 129.14 9.22108 147.858 3.76336C166.576 -1.69437 181.458 5.91537 188.111 14.0654C194.764 22.2153 191.502 34.549 188.882 49.3932Z" fill="white"/>
<path d="M102.4 4.72863e-06C81.3383 -0.00414904 64.2613 16.9883 64.2571 37.9539C64.2544 51.649 71.6621 64.284 83.6421 71.0175C84.0081 71.2274 84.4439 71.2812 84.8503 71.1663C85.2538 71.0542 85.5966 70.788 85.8041 70.4258L97.5672 49.7313C97.9987 48.9708 97.7298 48.0063 96.9664 47.5761C91.6082 44.5803 89.7043 37.8278 92.7139 32.494C95.7235 27.1603 102.507 25.265 107.865 28.2609C113.223 31.2568 115.127 38.0092 112.117 43.3429C111.117 45.1158 109.646 46.5803 107.865 47.5761C107.101 48.0063 106.833 48.9708 107.264 49.7313L118.995 70.4258C119.202 70.7892 119.545 71.0567 119.949 71.1694C120.088 71.2094 120.231 71.2297 120.375 71.2295C120.649 71.2292 120.919 71.1583 121.157 71.0238C139.501 60.7218 145.981 37.5678 135.632 19.3079C128.868 7.37279 116.166 -0.00681932 102.4 4.72863e-06Z" fill="url(#paint0_linear)"/>
<ellipse cx="154.368" cy="49.899" rx="7.99368" ry="7.95492" fill="url(#paint1_linear)"/>
<ellipse cx="63.8937" cy="17.7178" rx="17.8041" ry="17.7178" fill="url(#paint2_linear)"/>
<defs>
<linearGradient id="paint0_linear" x1="148.252" y1="99.6639" x2="71.7442" y2="-15.3674" gradientUnits="userSpaceOnUse">
<stop stop-color="#28BC00"/>
<stop offset="1" stop-color="#28BC00" stop-opacity="0"/>
</linearGradient>
<linearGradient id="paint1_linear" x1="163.973" y1="64.205" x2="146.487" y2="39.5436" gradientUnits="userSpaceOnUse">
<stop stop-color="#315EFB"/>
<stop offset="1" stop-color="#315EFB" stop-opacity="0"/>
</linearGradient>
<linearGradient id="paint2_linear" x1="83.1733" y1="28.9527" x2="35.9459" y2="26.0143" gradientUnits="userSpaceOnUse">
<stop stop-color="#DADAFF"/>
<stop offset="1" stop-color="#EEEEFF" stop-opacity="0"/>
</linearGradient>
</defs>
</svg>
