<svg width="279" height="318" viewBox="0 0 279 318" fill="none" xmlns="http://www.w3.org/2000/svg">
<path fill-rule="evenodd" clip-rule="evenodd" d="M192.067 39.3119C196.433 34.1871 199.387 27.9066 198.893 20.8691C197.471 0.592175 169.249 5.05285 163.759 15.2869C158.269 25.521 158.921 51.4805 166.016 53.3096C168.846 54.0391 174.874 52.2522 181.008 48.554L177.158 75.8H199.895L192.067 39.3119Z" fill="#915B3C"/>
<path fill-rule="evenodd" clip-rule="evenodd" d="M193.814 43.8764C196.668 31.1789 204.798 22.5234 203.556 16.8482C202.728 13.0647 200.522 10.7118 196.938 9.7897C195.084 2.28869 189.104 -0.901785 179 0.218282C163.843 1.89838 154.592 8.19375 158.587 22.0463C162.259 22.0463 166.693 20.718 172.823 22.9938C174.768 23.7159 176.159 25.9552 176.997 29.7117H179.767C182.456 25.2538 185.107 23.6156 187.72 24.7972C190.334 25.9788 190.928 28.8489 189.502 33.4075L190.867 43.8764H193.814Z" fill="#191847"/>
<path fill-rule="evenodd" clip-rule="evenodd" d="M263.368 194.238H154.421C146.05 194.238 139.263 201.025 139.263 209.398V296.568C139.263 304.94 146.05 311.728 154.421 311.728H263.368C271.74 311.728 278.526 304.94 278.526 296.568V209.398C278.526 201.025 271.74 194.238 263.368 194.238ZM248.211 220.768C250.303 220.768 252 222.464 252 224.558V281.408C252 283.501 250.303 285.198 248.211 285.198H169.579C167.486 285.198 165.79 283.501 165.79 281.408V224.558C165.79 222.464 167.486 220.768 169.579 220.768H248.211Z" fill="#C5CFD6"/>
<path fill-rule="evenodd" clip-rule="evenodd" d="M45.3231 306.99C64.0013 284.178 76.6394 267.266 83.2374 256.255C94.5349 237.401 103.781 220.624 106.699 214.215C113.657 198.933 90.6803 191.776 85.4801 198.905C77.6093 209.694 60.8002 243.643 35.0526 300.753L45.3231 306.99Z" fill="#B28B67"/>
<path fill-rule="evenodd" clip-rule="evenodd" d="M83.5983 300.358L118.36 212.843C125.794 196.89 89.8906 186.404 84.4266 193.828C72.0217 210.683 42.5382 277.176 38.8423 282.198L83.5983 300.358Z" fill="#2F3676"/>
<path fill-rule="evenodd" clip-rule="evenodd" d="M176.179 282.807C169.408 272.928 144.778 239.693 131.363 225.942C127.508 221.99 123.747 218.198 120.189 214.663C109.614 204.158 88.5559 221.816 99.111 231.384C125.397 255.214 163.751 287.383 166.956 290.251C171.447 294.271 180.435 289.015 176.179 282.807Z" fill="#915B3C"/>
<path fill-rule="evenodd" clip-rule="evenodd" d="M174.595 278.344C176.928 280.265 178.445 281.833 179.148 283.05C180.002 284.529 181.002 286.831 182.147 289.954C180.431 290.945 165.006 299.852 135.872 316.675C132.374 313.394 131.83 310.846 134.237 309.033C136.645 307.22 138.632 305.691 140.199 304.446L156.171 282.437C156.479 282.014 157.071 281.92 157.494 282.227C157.502 282.232 157.509 282.238 157.516 282.243L160.835 284.799C163.879 284.533 166.151 283.967 167.651 283.101C168.869 282.398 170.268 280.934 171.846 278.71L171.846 278.71C172.452 277.857 173.635 277.656 174.488 278.262C174.525 278.288 174.561 278.316 174.595 278.344Z" fill="#E4E4E4"/>
<path fill-rule="evenodd" clip-rule="evenodd" d="M53.3575 303.581C54.4173 306.411 54.9473 308.528 54.9473 309.933C54.9473 311.641 54.6627 314.135 54.0935 317.413C52.1116 317.413 34.3005 317.413 0.660164 317.413C-0.728378 312.821 0.0731659 310.343 3.0648 309.977C6.05644 309.611 8.54164 309.28 10.5204 308.985L35.3557 297.912C35.8336 297.699 36.3937 297.914 36.6067 298.392C36.6104 298.4 36.6139 298.408 36.6173 298.416L38.2137 302.289C40.9832 303.582 43.2337 304.228 44.9651 304.228C46.3719 304.228 48.3147 303.659 50.7935 302.523L50.7935 302.523C51.7448 302.087 52.8694 302.505 53.3055 303.456C53.3243 303.497 53.3416 303.539 53.3575 303.581Z" fill="#E4E4E4"/>
<path fill-rule="evenodd" clip-rule="evenodd" d="M130.868 217.214C159.759 212.507 179.111 209.288 188.924 207.558C216.893 202.625 225.049 187.572 220.227 154.729H168.694C161.874 156.699 133.38 168.88 83.2098 191.273C74.1833 195.755 75.8643 208.969 77.5142 213.322C77.5815 213.5 92.7986 239.578 123.165 291.558L165.321 264.699L130.788 220.379C129.876 218.542 129.903 217.487 130.868 217.214Z" fill="#5C63AB"/>
<path fill-rule="evenodd" clip-rule="evenodd" d="M127.155 142.325L96.9355 164.519C88.7393 166.731 81.8917 169.483 76.3927 172.775C75.0937 173.959 73.5238 176.357 78.9109 175.942C84.2981 175.528 89.9832 175.334 90.7265 177.172C91.4699 179.01 88.2099 181.208 89.7124 183.687C90.7142 185.34 95.4467 181.195 103.91 171.252L133.835 158.841L127.155 142.325ZM243.182 143.091L223.385 143.169C235.609 182.636 242.208 203.577 243.182 205.992C245.374 211.425 240.735 219.7 238.752 224.147C245.213 227.039 244.524 216.33 252.675 220.123C260.114 223.584 265.773 229.856 274.369 224.552C275.425 223.9 276.583 221.445 273.785 219.526C266.815 214.746 256.77 206.379 255.413 203.626C253.562 199.87 249.485 179.692 243.182 143.091Z" fill="#915B3C"/>
<path fill-rule="evenodd" clip-rule="evenodd" d="M186.921 60.0071L178.729 58.6018C148.334 84.8622 135.85 135.311 98.5931 162.037L107.56 173.153C172.194 165.15 188.213 103.614 186.921 60.0071Z" fill="#E87613"/>
<path fill-rule="evenodd" clip-rule="evenodd" d="M222.632 162.97C189.785 162.97 165.623 162.97 150.147 162.97C146.835 162.97 147.459 158.187 147.938 155.773C153.464 127.916 175.035 97.8877 175.035 58.2341L195.943 54.955C213.236 82.7721 219.217 117.021 222.632 162.97Z" fill="#DDE3E9"/>
<path fill-rule="evenodd" clip-rule="evenodd" d="M222.049 82.2979C225.086 81.4249 227.491 79.3888 229.263 76.1896C236.905 62.3987 234.145 54.8057 225.979 52.3099C217.812 49.814 210.529 54.955 197.517 54.955C196.809 54.955 196.161 54.9994 195.572 55.0882L189.027 55.4617C170.248 119.115 165.069 161.584 173.49 182.868H230.541C233.921 190.751 237.155 197.383 240.244 202.765H255.79C257.253 155.454 246.006 115.298 222.049 82.2979Z" fill="#FF9B21"/>
<path fill-rule="evenodd" clip-rule="evenodd" d="M218.117 150.177C216.323 165.191 213.407 176.088 209.369 182.867H230.541C226.598 173.672 222.457 162.775 218.117 150.177Z" fill="black" fill-opacity="0.1"/>
</svg>
