<svg width="272" height="26" viewBox="0 0 272 26" fill="none" xmlns="http://www.w3.org/2000/svg">
<path d="M253.56 5.34448H269.062C270.128 5.34448 271 6.20573 271 7.25836V18.7416C271 19.7942 270.128 20.6555 269.062 20.6555H253.56C252.494 20.6555 251.622 19.7942 251.622 18.7416V7.25836C251.622 6.20573 252.494 5.34448 253.56 5.34448Z" stroke="white" stroke-width="2" stroke-linecap="round" stroke-linejoin="round"/>
<path d="M271 7.2583L261.311 13.9569L251.622 7.2583" stroke="white" stroke-width="2" stroke-linecap="round" stroke-linejoin="round"/>
<path d="M207.376 4.38755C206.448 5.03394 205.42 5.52833 204.333 5.85167C203.75 5.189 202.974 4.71931 202.112 4.50614C201.249 4.29297 200.341 4.34659 199.51 4.65976C198.679 4.97292 197.966 5.53052 197.467 6.25714C196.967 6.98375 196.706 7.84433 196.718 8.72248V9.67942C195.015 9.72302 193.328 9.35005 191.806 8.59372C190.285 7.83739 188.977 6.72117 187.998 5.34449C187.998 5.34449 184.122 13.9569 192.842 17.7847C190.847 19.1224 188.47 19.7932 186.06 19.6986C194.78 24.4832 205.438 19.6986 205.438 8.69377C205.437 8.42722 205.411 8.16133 205.36 7.89951C206.349 6.93635 207.047 5.72029 207.376 4.38755V4.38755Z" stroke="white" stroke-width="2" stroke-linecap="round" stroke-linejoin="round"/>
<path d="M142.336 7.66027C142.221 7.20612 141.987 6.79001 141.657 6.45396C141.327 6.11792 140.913 5.87385 140.457 5.7464C138.79 5.34448 132.124 5.34448 132.124 5.34448C132.124 5.34448 125.458 5.34448 123.792 5.78467C123.336 5.91212 122.922 6.1562 122.592 6.49224C122.262 6.82828 122.027 7.2444 121.912 7.69855C121.607 9.36894 121.458 11.0634 121.466 12.7607C121.456 14.4708 121.605 16.1783 121.912 17.8612C122.039 18.3013 122.279 18.7016 122.608 19.0234C122.937 19.3453 123.345 19.5778 123.792 19.6985C125.458 20.1387 132.124 20.1387 132.124 20.1387C132.124 20.1387 138.79 20.1387 140.457 19.6985C140.913 19.5711 141.327 19.327 141.657 18.991C141.987 18.6549 142.221 18.2388 142.336 17.7847C142.639 16.1269 142.788 14.4453 142.782 12.7607C142.793 11.0507 142.644 9.34324 142.336 7.66027V7.66027Z" stroke="white" stroke-width="2" stroke-linecap="round" stroke-linejoin="round"/>
<path d="M129.944 15.8897L135.516 12.7605L129.944 9.63135V15.8897Z" stroke="white" stroke-width="2" stroke-linecap="round" stroke-linejoin="round"/>
<path d="M71.7297 3.43042H62.0407C59.3651 3.43042 57.1962 5.5726 57.1962 8.21511V17.7845C57.1962 20.427 59.3651 22.5692 62.0407 22.5692H71.7297C74.4052 22.5692 76.5742 20.427 76.5742 17.7845V8.21511C76.5742 5.5726 74.4052 3.43042 71.7297 3.43042Z" stroke="white" stroke-width="2" stroke-linecap="round" stroke-linejoin="round"/>
<path d="M70.7607 12.3969C70.8802 13.1933 70.7425 14.0067 70.3671 14.7213C69.9916 15.436 69.3976 16.0155 68.6694 16.3775C67.9413 16.7394 67.1161 16.8654 66.3113 16.7375C65.5065 16.6096 64.763 16.2343 64.1865 15.665C63.6101 15.0957 63.2301 14.3614 63.1006 13.5665C62.9711 12.7716 63.0987 11.9566 63.4652 11.2375C63.8317 10.5183 64.4184 9.93158 65.142 9.56077C65.8656 9.18996 66.6891 9.05392 67.4955 9.17202C68.318 9.29249 69.0795 9.67103 69.6675 10.2517C70.2554 10.8325 70.6387 11.5845 70.7607 12.3969Z" stroke="white" stroke-width="2" stroke-linecap="round" stroke-linejoin="round"/>
<path d="M72.2141 7.73657H72.2241" stroke="white" stroke-width="2" stroke-linecap="round" stroke-linejoin="round"/>
<path d="M13.9187 1.5166H10.3954C8.83801 1.5166 7.34441 2.12152 6.24317 3.19828C5.14194 4.27505 4.52327 5.73545 4.52327 7.25823V10.7032H1V15.2965H4.52327V24.4831H9.22097V15.2965H12.7442L13.9187 10.7032H9.22097V7.25823C9.22097 6.95367 9.3447 6.66159 9.56495 6.44624C9.78519 6.23089 10.0839 6.1099 10.3954 6.1099H13.9187V1.5166Z" stroke="white" stroke-width="2" stroke-linecap="round" stroke-linejoin="round"/>
</svg>
