<svg width="63" height="65" viewBox="0 0 63 65" fill="none" xmlns="http://www.w3.org/2000/svg">
<path d="M41.971 46.5492C41.9083 46.5516 41.8474 46.5703 41.7941 46.6034C41.7409 46.6365 41.6972 46.6829 41.6673 46.738C41.6374 46.7931 41.6223 46.8551 41.6236 46.9178C41.6249 46.9805 41.6425 47.0418 41.6747 47.0956L50.4363 62.2684C50.4599 62.3098 50.4914 62.3462 50.5291 62.3754C50.5667 62.4046 50.6098 62.4261 50.6558 62.4386C50.7018 62.4511 50.7498 62.4543 50.7971 62.4482C50.8443 62.442 50.8899 62.4266 50.9312 62.4028C50.9725 62.3789 51.0086 62.3472 51.0376 62.3093C51.0665 62.2715 51.0877 62.2282 51.0999 62.1822C51.1121 62.1361 51.115 62.0881 51.1086 62.0408C51.1021 61.9936 51.0864 61.9481 51.0623 61.907L42.3021 46.7342C42.2695 46.6758 42.2214 46.6276 42.1631 46.595C42.1048 46.5623 42.0385 46.5464 41.9717 46.5492H41.971ZM18.395 5.7021C18.3325 5.70459 18.2716 5.72328 18.2185 5.75635C18.1653 5.78942 18.1217 5.83573 18.0918 5.89075C18.0619 5.94576 18.0468 6.00759 18.048 6.07019C18.0493 6.13278 18.0667 6.19398 18.0987 6.24781L23.6136 15.8031C23.6362 15.8463 23.6673 15.8845 23.705 15.9153C23.7427 15.9462 23.7863 15.9691 23.8331 15.9827C23.8799 15.9962 23.929 16.0002 23.9774 15.9943C24.0258 15.9885 24.0725 15.9729 24.1147 15.9485C24.1569 15.9241 24.1937 15.8914 24.2229 15.8524C24.2522 15.8134 24.2732 15.7689 24.2848 15.7216C24.2964 15.6742 24.2983 15.625 24.2904 15.5769C24.2825 15.5288 24.2649 15.4828 24.2388 15.4417L18.7239 5.88641C18.6913 5.82829 18.6433 5.78031 18.5851 5.74778C18.5269 5.71526 18.4609 5.69945 18.3943 5.7021H18.395ZM55.1901 18.1052C55.1214 18.1031 55.0534 18.1206 54.9943 18.1558L48.2607 22.0437C48.2175 22.0663 48.1794 22.0974 48.1485 22.1351C48.1177 22.1728 48.0947 22.2164 48.0812 22.2632C48.0676 22.31 48.0636 22.3591 48.0695 22.4075C48.0754 22.4559 48.091 22.5026 48.1154 22.5448C48.1398 22.587 48.1724 22.6238 48.2114 22.653C48.2504 22.6823 48.2949 22.7033 48.3423 22.7149C48.3896 22.7265 48.4388 22.7284 48.4869 22.7205C48.535 22.7126 48.581 22.695 48.6221 22.6689L55.3556 18.781C55.4242 18.7422 55.4783 18.6821 55.5096 18.6098C55.5408 18.5375 55.5476 18.4569 55.5289 18.3804C55.5101 18.3039 55.4669 18.2356 55.4057 18.1859C55.3446 18.1362 55.2689 18.1079 55.1901 18.1052ZM17.2508 39.8424C17.1941 39.8464 17.1391 39.8637 17.0904 39.893L6.83399 45.8134C6.79279 45.8371 6.75667 45.8687 6.7277 45.9064C6.69872 45.9441 6.67745 45.9871 6.6651 46.033C6.65275 46.0789 6.64956 46.1268 6.65572 46.174C6.66188 46.2211 6.67726 46.2666 6.70099 46.3078C6.72472 46.3489 6.75633 46.3851 6.79402 46.414C6.83171 46.443 6.87473 46.4643 6.92064 46.4766C6.96655 46.489 7.01444 46.4922 7.06158 46.486C7.10872 46.4799 7.15419 46.4645 7.19538 46.4408L17.4518 40.5182C17.5233 40.4781 17.5791 40.4148 17.6099 40.3388C17.6408 40.2628 17.6448 40.1786 17.6214 40.1C17.5981 40.0214 17.5486 39.953 17.4813 39.9062C17.4139 39.8594 17.3327 39.8369 17.2508 39.8424ZM32.8812 48.9308C32.7856 48.9323 32.6945 48.9716 32.6278 49.0402C32.5612 49.1087 32.5244 49.2009 32.5256 49.2965V63.7523C32.5256 63.8482 32.5637 63.9401 32.6314 64.0079C32.6992 64.0756 32.7911 64.1137 32.887 64.1137C32.9828 64.1137 33.0747 64.0756 33.1425 64.0079C33.2103 63.9401 33.2484 63.8482 33.2484 63.7523V49.2965C33.249 49.2482 33.2399 49.2002 33.2216 49.1555C33.2033 49.1108 33.1763 49.0702 33.142 49.0361C33.1078 49.002 33.0671 48.9751 33.0223 48.957C32.9775 48.9389 32.9295 48.93 32.8812 48.9308ZM32.8812 4.84053C32.8337 4.84129 32.7869 4.85138 32.7433 4.87024C32.6998 4.8891 32.6604 4.91636 32.6273 4.95046C32.5943 4.98456 32.5683 5.02482 32.5509 5.06896C32.5334 5.1131 32.5248 5.16025 32.5256 5.20771V13.157C32.5256 13.2528 32.5637 13.3447 32.6314 13.4125C32.6992 13.4803 32.7911 13.5184 32.887 13.5184C32.9828 13.5184 33.0747 13.4803 33.1425 13.4125C33.2103 13.3447 33.2484 13.2528 33.2484 13.157V5.20771C33.2492 5.15928 33.2402 5.11118 33.222 5.06628C33.2038 5.02138 33.1768 4.98059 33.1426 4.94634C33.1083 4.91208 33.0675 4.88507 33.0226 4.86689C32.9777 4.84872 32.9296 4.83975 32.8812 4.84053ZM48.4609 39.8142C48.3831 39.8192 48.309 39.8491 48.2496 39.8997C48.1903 39.9502 48.1488 40.0186 48.1315 40.0946C48.1142 40.1706 48.1219 40.2502 48.1536 40.3215C48.1852 40.3927 48.239 40.4519 48.307 40.49L57.4467 45.7671C57.4878 45.7933 57.5338 45.8108 57.5819 45.8187C57.63 45.8266 57.6792 45.8247 57.7265 45.8131C57.7739 45.8015 57.8184 45.7805 57.8574 45.7512C57.8964 45.722 57.9291 45.6852 57.9534 45.643C57.9778 45.6008 57.9934 45.5541 57.9993 45.5057C58.0052 45.4573 58.0012 45.4082 57.9876 45.3614C57.9741 45.3146 57.9512 45.271 57.9203 45.2333C57.8894 45.1956 57.8513 45.1645 57.8081 45.1419L48.6684 39.8655C48.6059 39.8282 48.5336 39.8105 48.4609 39.8149V39.8142ZM1.32271 12.578C1.24106 12.5741 1.16051 12.598 1.09419 12.6458C1.02787 12.6935 0.979709 12.7624 0.957565 12.8411C0.93542 12.9198 0.940601 13.0036 0.972263 13.079C1.00392 13.1543 1.0602 13.2167 1.13189 13.256L17.0094 22.4217C17.0925 22.4696 17.1913 22.4826 17.2839 22.4577C17.3766 22.4328 17.4555 22.3722 17.5035 22.2891C17.5514 22.206 17.5643 22.1072 17.5395 22.0146C17.5146 21.9219 17.4539 21.843 17.3708 21.795L1.49329 12.6293C1.44153 12.5985 1.38289 12.5811 1.32271 12.5787V12.578ZM50.9567 30.8653C50.8609 30.8653 50.769 30.9034 50.7012 30.9712C50.6334 31.039 50.5954 31.1309 50.5954 31.2267C50.5954 31.3226 50.6334 31.4145 50.7012 31.4823C50.769 31.5501 50.8609 31.5881 50.9567 31.5881H61.7986C61.8945 31.5881 61.9864 31.5501 62.0542 31.4823C62.1219 31.4145 62.16 31.3226 62.16 31.2267C62.16 31.1309 62.1219 31.039 62.0542 30.9712C61.9864 30.9034 61.8945 30.8653 61.7986 30.8653H50.9567ZM0.361395 30.8653C0.265547 30.8653 0.173625 30.9034 0.10585 30.9712C0.0380755 31.039 0 31.1309 0 31.2267C0 31.3226 0.0380755 31.4145 0.10585 31.4823C0.173625 31.5501 0.265547 31.5881 0.361395 31.5881H14.8172C14.9131 31.5881 15.005 31.5501 15.0728 31.4823C15.1405 31.4145 15.1786 31.3226 15.1786 31.2267C15.1786 31.1309 15.1405 31.039 15.0728 30.9712C15.005 30.9034 14.9131 30.8653 14.8172 30.8653H0.361395ZM50.7544 4.38478e-06C50.6895 -0.000315107 50.6257 0.0168304 50.5698 0.0496417C50.5138 0.082453 50.4677 0.12972 50.4363 0.186484L41.6739 15.3593C41.626 15.4424 41.6131 15.5411 41.6379 15.6338C41.6628 15.7264 41.7235 15.8054 41.8066 15.8533C41.8897 15.9013 41.9884 15.9142 42.0811 15.8893C42.1737 15.8645 42.2527 15.8038 42.3006 15.7207L51.0608 0.54788C51.0937 0.493277 51.1116 0.430945 51.1126 0.367207C51.1136 0.303469 51.0978 0.240593 51.0667 0.18496C51.0355 0.129326 50.9903 0.082913 50.9354 0.0504303C50.8806 0.0179475 50.8181 0.000550465 50.7544 4.38478e-06ZM24.0371 46.4068C23.9722 46.4061 23.9082 46.4229 23.852 46.4554C23.7958 46.488 23.7494 46.5351 23.7177 46.5918L20.6364 51.9311C20.6127 51.9722 20.5973 52.0176 20.5911 52.0647C20.5849 52.1118 20.5881 52.1597 20.6004 52.2056C20.6127 52.2514 20.6339 52.2944 20.6629 52.3321C20.6918 52.3698 20.7279 52.4014 20.769 52.4251C20.8102 52.4488 20.8556 52.4642 20.9027 52.4704C20.9498 52.4766 20.9976 52.4734 21.0435 52.4611C21.0894 52.4488 21.1324 52.4275 21.1701 52.3986C21.2077 52.3697 21.2393 52.3336 21.2631 52.2925L24.345 46.9532C24.3776 46.8985 24.3952 46.8362 24.396 46.7726C24.3968 46.7089 24.3807 46.6462 24.3495 46.5907C24.3182 46.5353 24.2729 46.4891 24.218 46.4568C24.1632 46.4245 24.1008 46.4072 24.0371 46.4068ZM36.4792 19.2891C36.3034 19.2939 36.1314 19.3414 35.978 19.4276C35.8246 19.5137 35.6945 19.6359 35.5989 19.7835L28.4483 30.5097C28.3133 30.6629 28.2243 30.8511 28.1916 31.0526C28.1588 31.2541 28.1836 31.4608 28.2632 31.6488C28.3427 31.8369 28.4737 31.9986 28.6411 32.1155C28.8085 32.2324 29.0055 32.2996 29.2094 32.3095C29.2306 32.3106 29.2518 32.3111 29.273 32.3109H34.4749L28.371 41.4672C28.2901 41.5856 28.2336 41.7189 28.2046 41.8593C28.1756 41.9998 28.1748 42.1445 28.2021 42.2853C28.2295 42.426 28.2845 42.56 28.3639 42.6793C28.4434 42.7987 28.5457 42.9011 28.665 42.9806C28.7843 43.0601 28.9182 43.1152 29.0589 43.1427C29.1997 43.1701 29.3444 43.1693 29.4849 43.1405C29.6253 43.1116 29.7586 43.0551 29.8771 42.9743C29.9956 42.8936 30.0969 42.7901 30.1751 42.67L37.403 31.8281C37.5118 31.6648 37.5743 31.4751 37.5838 31.2791C37.5932 31.0831 37.5493 30.8882 37.4568 30.7152C37.3642 30.5422 37.2264 30.3975 37.058 30.2967C36.8897 30.1958 36.6972 30.1426 36.5009 30.1425H31.299L37.403 20.9862C37.5161 20.8214 37.5814 20.6285 37.5917 20.4288C37.602 20.2292 37.5569 20.0305 37.4614 19.8549C37.3659 19.6793 37.2236 19.5335 37.0504 19.4336C36.8772 19.3338 36.6798 19.2838 36.48 19.2891H36.4792Z" fill="white"/>
</svg>
