<svg width="61" height="63" viewBox="0 0 61 63" fill="none" xmlns="http://www.w3.org/2000/svg">
<path d="M40.8367 45.2911C40.7757 45.2934 40.7164 45.3116 40.6646 45.3438C40.6127 45.376 40.5702 45.4212 40.5411 45.4748C40.512 45.5285 40.4974 45.5887 40.4987 45.6497C40.4999 45.7107 40.517 45.7704 40.5483 45.8227L49.0732 60.5855C49.0961 60.6258 49.1268 60.6612 49.1634 60.6896C49.2001 60.718 49.242 60.7389 49.2867 60.751C49.3315 60.7632 49.3782 60.7664 49.4242 60.7604C49.4702 60.7544 49.5145 60.7394 49.5547 60.7162C49.5948 60.693 49.63 60.6621 49.6582 60.6253C49.6864 60.5885 49.707 60.5464 49.7188 60.5016C49.7307 60.4567 49.7335 60.41 49.7273 60.3641C49.721 60.3181 49.7057 60.2739 49.6822 60.2339L41.1588 45.4711C41.1271 45.4143 41.0803 45.3674 41.0235 45.3356C40.9668 45.3039 40.9023 45.2884 40.8374 45.2911H40.8367ZM17.8979 5.54799C17.837 5.55041 17.7778 5.5686 17.7261 5.60077C17.6744 5.63295 17.6319 5.67801 17.6028 5.73154C17.5737 5.78506 17.5591 5.84523 17.5603 5.90613C17.5614 5.96703 17.5784 6.02658 17.6095 6.07895L22.9754 15.376C22.9973 15.418 23.0276 15.4551 23.0643 15.4852C23.101 15.5152 23.1434 15.5375 23.189 15.5507C23.2345 15.5639 23.2823 15.5678 23.3293 15.5621C23.3764 15.5563 23.4219 15.5412 23.4629 15.5174C23.504 15.4937 23.5398 15.4619 23.5683 15.424C23.5967 15.386 23.6172 15.3427 23.6285 15.2967C23.6398 15.2506 23.6416 15.2027 23.6339 15.1559C23.6262 15.1091 23.6091 15.0644 23.5837 15.0244L18.2178 5.72732C18.1861 5.67077 18.1394 5.62409 18.0828 5.59244C18.0262 5.56079 17.9619 5.54541 17.8972 5.54799H17.8979ZM53.6985 17.6159C53.6316 17.6138 53.5655 17.6309 53.5079 17.6651L46.9564 21.4479C46.9144 21.4699 46.8772 21.5001 46.8472 21.5368C46.8172 21.5736 46.7949 21.616 46.7817 21.6615C46.7685 21.707 46.7646 21.7548 46.7703 21.8019C46.776 21.8489 46.7912 21.8944 46.815 21.9354C46.8387 21.9765 46.8705 22.0123 46.9084 22.0408C46.9464 22.0692 46.9897 22.0897 47.0357 22.101C47.0818 22.1123 47.1297 22.1141 47.1764 22.1064C47.2232 22.0987 47.268 22.0817 47.308 22.0562L53.8596 18.2734C53.9263 18.2357 53.9789 18.1772 54.0093 18.1068C54.0397 18.0365 54.0463 17.9581 54.0281 17.8836C54.0098 17.8092 53.9678 17.7427 53.9083 17.6944C53.8488 17.646 53.7751 17.6185 53.6985 17.6159ZM16.7846 38.7656C16.7294 38.7695 16.6759 38.7863 16.6285 38.8148L6.64928 44.5752C6.6092 44.5983 6.57406 44.629 6.54587 44.6657C6.51767 44.7024 6.49698 44.7442 6.48496 44.7889C6.47294 44.8335 6.46984 44.8801 6.47584 44.926C6.48183 44.9719 6.4968 45.0161 6.51988 45.0562C6.54297 45.0963 6.57373 45.1314 6.6104 45.1596C6.64707 45.1878 6.68893 45.2085 6.7336 45.2205C6.77827 45.2325 6.82486 45.2356 6.87073 45.2296C6.91659 45.2236 6.96083 45.2087 7.00091 45.1856L16.9801 39.4231C17.0497 39.3841 17.104 39.3225 17.134 39.2486C17.164 39.1746 17.1679 39.0927 17.1452 39.0162C17.1224 38.9397 17.0744 38.8732 17.0088 38.8277C16.9433 38.7821 16.8642 38.7602 16.7846 38.7656ZM31.9925 47.6083C31.8995 47.6098 31.8109 47.6481 31.746 47.7148C31.6812 47.7815 31.6454 47.8711 31.6465 47.9642V62.0293C31.6465 62.1225 31.6836 62.212 31.7495 62.2779C31.8154 62.3439 31.9049 62.3809 31.9981 62.3809C32.0914 62.3809 32.1808 62.3439 32.2468 62.2779C32.3127 62.212 32.3498 62.1225 32.3498 62.0293V47.9642C32.3503 47.9171 32.3415 47.8705 32.3237 47.827C32.3059 47.7835 32.2796 47.7439 32.2463 47.7108C32.213 47.6776 32.1734 47.6514 32.1298 47.6338C32.0862 47.6162 32.0395 47.6076 31.9925 47.6083ZM31.9925 4.70971C31.9463 4.71044 31.9008 4.72026 31.8584 4.73862C31.816 4.75697 31.7776 4.78349 31.7455 4.81666C31.7134 4.84984 31.6881 4.88902 31.6711 4.93197C31.6541 4.97491 31.6458 5.02078 31.6465 5.06696V12.8014C31.6465 12.8946 31.6836 12.9841 31.7495 13.05C31.8154 13.1159 31.9049 13.153 31.9981 13.153C32.0914 13.153 32.1808 13.1159 32.2468 13.05C32.3127 12.9841 32.3498 12.8946 32.3498 12.8014V5.06696C32.3505 5.01984 32.3418 4.97304 32.3241 4.92935C32.3064 4.88567 32.2802 4.84598 32.2468 4.81265C32.2135 4.77933 32.1738 4.75304 32.1301 4.73535C32.0864 4.71767 32.0396 4.70895 31.9925 4.70971ZM47.1512 38.7381C47.0755 38.743 47.0034 38.7721 46.9456 38.8213C46.8878 38.8705 46.8475 38.937 46.8307 39.011C46.8138 39.0849 46.8213 39.1624 46.8521 39.2317C46.8829 39.301 46.9352 39.3586 47.0014 39.3957L55.8941 44.5302C55.9341 44.5556 55.9788 44.5727 56.0256 44.5804C56.0724 44.5881 56.1203 44.5862 56.1664 44.5749C56.2124 44.5637 56.2557 44.5432 56.2937 44.5147C56.3316 44.4863 56.3634 44.4504 56.3871 44.4094C56.4109 44.3683 56.4261 44.3229 56.4318 44.2758C56.4375 44.2287 56.4336 44.181 56.4204 44.1354C56.4072 44.0899 56.3849 44.0475 56.3549 44.0108C56.3249 43.9741 56.2877 43.9438 56.2457 43.9218L47.353 38.7881C47.2922 38.7517 47.2219 38.7346 47.1512 38.7388V38.7381ZM1.28696 12.2381C1.20752 12.2343 1.12914 12.2575 1.06462 12.304C1.00009 12.3505 0.95323 12.4175 0.931684 12.494C0.910138 12.5706 0.91518 12.6522 0.945985 12.7255C0.976791 12.7988 1.03154 12.8595 1.1013 12.8977L16.5497 21.8157C16.6306 21.8623 16.7266 21.8749 16.8168 21.8507C16.9069 21.8265 16.9838 21.7675 17.0304 21.6867C17.077 21.6058 17.0896 21.5097 17.0654 21.4196C17.0412 21.3294 16.9822 21.2526 16.9013 21.206L1.45293 12.288C1.40257 12.258 1.34552 12.2411 1.28696 12.2388V12.2381ZM49.5795 30.0311C49.4863 30.0311 49.3968 30.0682 49.3309 30.1341C49.265 30.2001 49.2279 30.2895 49.2279 30.3828C49.2279 30.476 49.265 30.5655 49.3309 30.6314C49.3968 30.6973 49.4863 30.7344 49.5795 30.7344H60.1284C60.2216 30.7344 60.3111 30.6973 60.377 30.6314C60.443 30.5655 60.48 30.476 60.48 30.3828C60.48 30.2895 60.443 30.2001 60.377 30.1341C60.3111 30.0682 60.2216 30.0311 60.1284 30.0311H49.5795ZM0.351628 30.0311C0.25837 30.0311 0.168933 30.0682 0.10299 30.1341C0.0370465 30.2001 0 30.2895 0 30.3828C0 30.476 0.0370465 30.5655 0.10299 30.6314C0.168933 30.6973 0.25837 30.7344 0.351628 30.7344H14.4167C14.51 30.7344 14.5994 30.6973 14.6654 30.6314C14.7313 30.5655 14.7684 30.476 14.7684 30.3828C14.7684 30.2895 14.7313 30.2001 14.6654 30.1341C14.5994 30.0682 14.51 30.0311 14.4167 30.0311H0.351628ZM49.3826 4.26627e-06C49.3195 -0.00030659 49.2575 0.0163755 49.203 0.0483001C49.1486 0.0802246 49.1037 0.126214 49.0732 0.181444L40.5476 14.9442C40.501 15.025 40.4884 15.1211 40.5126 15.2113C40.5368 15.3014 40.5958 15.3782 40.6767 15.4249C40.7575 15.4715 40.8536 15.4841 40.9437 15.4599C41.0339 15.4357 41.1107 15.3767 41.1573 15.2958L49.6808 0.533072C49.7128 0.479945 49.7302 0.419298 49.7312 0.357282C49.7322 0.295267 49.7168 0.234091 49.6865 0.179961C49.6562 0.12583 49.6122 0.0806721 49.5588 0.0490673C49.5054 0.0174625 49.4446 0.000535587 49.3826 4.26627e-06ZM23.3875 45.1525C23.3243 45.1518 23.262 45.1682 23.2073 45.1999C23.1526 45.2315 23.1075 45.2774 23.0766 45.3326L20.0787 50.5275C20.0556 50.5676 20.0406 50.6118 20.0346 50.6576C20.0286 50.7034 20.0316 50.75 20.0436 50.7946C20.0556 50.8392 20.0763 50.8811 20.1044 50.9177C20.1326 50.9544 20.1677 50.9851 20.2077 51.0082C20.2477 51.0313 20.2919 51.0463 20.3378 51.0523C20.3836 51.0583 20.4301 51.0552 20.4748 51.0432C20.5194 51.0312 20.5612 51.0106 20.5979 50.9824C20.6345 50.9543 20.6653 50.9192 20.6884 50.8791L23.6871 45.6842C23.7188 45.631 23.7359 45.5704 23.7366 45.5084C23.7374 45.4465 23.7218 45.3855 23.6914 45.3315C23.661 45.2776 23.6168 45.2326 23.5635 45.2012C23.5101 45.1698 23.4494 45.153 23.3875 45.1525ZM35.4933 18.7678C35.3222 18.7725 35.1549 18.8187 35.0056 18.9025C34.8564 18.9863 34.7298 19.1052 34.6368 19.2488L27.6794 29.6851C27.5481 29.8342 27.4615 30.0173 27.4296 30.2133C27.3978 30.4094 27.4219 30.6105 27.4993 30.7935C27.5767 30.9764 27.7041 31.1338 27.867 31.2475C28.0299 31.3612 28.2216 31.4267 28.42 31.4362C28.4406 31.4373 28.4612 31.4378 28.4819 31.4376H33.5432L27.6042 40.3465C27.5255 40.4617 27.4705 40.5914 27.4423 40.728C27.4141 40.8646 27.4133 41.0055 27.4399 41.1424C27.4665 41.2794 27.52 41.4097 27.5973 41.5258C27.6746 41.6419 27.7742 41.7416 27.8903 41.819C28.0064 41.8963 28.1366 41.9499 28.2736 41.9766C28.4105 42.0033 28.5513 42.0026 28.688 41.9745C28.8246 41.9464 28.9543 41.8914 29.0696 41.8129C29.1849 41.7343 29.2834 41.6336 29.3595 41.5167L36.3921 30.9679C36.498 30.809 36.5588 30.6244 36.568 30.4337C36.5772 30.243 36.5345 30.0534 36.4444 29.885C36.3543 29.7167 36.2202 29.576 36.0565 29.4778C35.8927 29.3797 35.7053 29.3279 35.5144 29.3279H30.4531L36.3921 20.419C36.5021 20.2586 36.5657 20.0709 36.5757 19.8767C36.5857 19.6824 36.5418 19.4892 36.4489 19.3183C36.356 19.1474 36.2176 19.0056 36.0491 18.9084C35.8806 18.8113 35.6885 18.7626 35.494 18.7678H35.4933Z" fill="#3F3D56"/>
</svg>
